<?xml version="1.0" encoding="utf-8"?>
<!-- Generator: Adobe Illustrator 18.1.0, SVG Export Plug-In . SVG Version: 6.00 Build 0)  -->
<svg version="1.1" id="Capa_1" xmlns="http://www.w3.org/2000/svg" xmlns:xlink="http://www.w3.org/1999/xlink" x="0px" y="0px"
	 viewBox="0 0 75 75" enable-background="new 0 0 75 75" xml:space="preserve">
<g>
	<g>
		<path fill="#EBEBE9" d="M62.7,51.3c0,1.1-1.8,2-2.9,2H15.4c-1.1,0-2.7-0.9-2.7-2V21c0-1.1,0.9-2,2-2h45.9c1.1,0,2,0.9,2,2
			C62.7,21,62.7,51.3,62.7,51.3z"/>
		<rect x="16.7" y="24.2" fill="#FFFFFF" width="42.2" height="25.3"/>
		<path fill="#B0B0AA" d="M40.3,22.3h-5.1c-0.4,0-0.7-0.3-0.7-0.7c0-0.4,0.3-0.7,0.7-0.7h5.2c0.4,0,0.7,0.3,0.7,0.7
			C41,22,40.7,22.3,40.3,22.3z"/>
		<path fill="#EA516D" d="M54.1,37.4c0,0.5-0.4,0.9-0.9,0.9H40.3c-0.5,0-0.9-0.4-0.9-0.9v-8.6c0-0.5,0.4-0.9,0.9-0.9h13
			c0.5,0,0.9,0.4,0.9,0.9L54.1,37.4L54.1,37.4z"/>
		<path fill="#CECDC9" d="M54.1,41.6H39.9c-0.4,0-0.8-0.4-0.8-0.8s0.4-0.8,0.8-0.8h14.3c0.4,0,0.8,0.4,0.8,0.8
			C54.9,41.2,54.6,41.6,54.1,41.6z"/>
		<path fill="#CECDC9" d="M54.1,44H39.9c-0.4,0-0.7-0.3-0.7-0.7s0.3-0.7,0.7-0.7h14.3c0.4,0,0.7,0.3,0.7,0.7
			C54.9,43.7,54.5,44,54.1,44z"/>
		<path fill="#CECDC9" d="M54.1,46.5H39.9c-0.4,0-0.8-0.4-0.8-0.8s0.4-0.8,0.8-0.8h14.3c0.4,0,0.8,0.4,0.8,0.8S54.6,46.5,54.1,46.5z
			"/>
		<path fill="#CECDC9" d="M34.7,46.5H21.5c-0.4,0-0.8-0.4-0.8-0.8s0.4-0.8,0.8-0.8h13.2c0.4,0,0.8,0.4,0.8,0.8S35.1,46.5,34.7,46.5z
			"/>
		<rect x="21.2" y="27.9" fill="#CECDC9" width="13.7" height="15.4"/>
		<rect x="24" y="30.3" fill="#FFFFFF" width="8.2" height="10.4"/>
		<path fill="#4C6371" d="M27.8,38.4c-1.1,0-1.3-1.9-2-1.8c-0.8,0.1-1.5,1.7-1.7,1.9v2.3h8.2v-3.3c-0.4-1.3-1.1-2.8-1.8-2.8
			C29.5,34.6,28.6,38.4,27.8,38.4z"/>
		<path fill="#B0B0AA" d="M8.3,49.5V51c0,2.2,1.9,4.2,4.4,4.2h50.1c2.5,0,4.6-2,4.6-4.2v-1.5H8.3z"/>
		<path fill="#707067" d="M69.3,56H5.7c-0.4,0-0.8-0.4-0.8-0.8s0.4-0.8,0.8-0.8h63.6c0.4,0,0.8,0.4,0.8,0.8S69.7,56,69.3,56z"/>
		<path fill="#EBEBE9" d="M31.8,51.4h12c1,0,1.8-0.8,1.8-1.8H30C30,50.5,30.8,51.4,31.8,51.4z"/>
		<path fill="#C0435A" d="M39.3,33.1v4.3c0,0.5,0.4,0.9,0.9,0.9h13c0.5,0,0.9-0.4,0.9-0.9v-4.3H39.3z"/>
	</g>
	<path fill="#FFFFFF" d="M51.2,31.8c0-0.9-0.8-1.7-1.7-1.7c-0.9,0-1.7,0.8-1.7,1.7c0,0.3,0.2,0.9,0.9,2l0,0c0.3,0.6,0.5,1,0.5,1.3
		c0,0.6-0.5,1-1,1c-0.6,0-1-0.5-1-1c0-0.2,0.2-0.7,0.5-1.3l0,0c0.1-0.2,0.2-0.4,0.3-0.5c-0.2-0.3-0.2-0.5-0.4-0.8
		c-0.1,0.2-0.2,0.4-0.3,0.6c-0.1,0.1-0.2,0.2-0.2,0.4c0,0-0.1,0.1-0.1,0.2l-0.2,0.2l-0.2-0.2c0,0-0.1-0.1-0.1-0.2
		c0-0.1-0.1-0.2-0.2-0.4c-0.3-0.6-0.5-1.1-0.5-1.3c0-0.6,0.5-1,1-1c0.3,0,0.6,0.1,0.8,0.3c0.1-0.2,0.2-0.4,0.3-0.6
		c-0.3-0.2-0.7-0.4-1.1-0.4c-0.6,0-1.1,0.3-1.4,0.7C45,30.3,44.5,30,43.9,30c-0.9,0-1.7,0.8-1.7,1.7c0,0.3,0.2,1,1,2.2l0.2,0.3
		c0.1-0.2,0.2-0.4,0.3-0.7c-0.5-0.8-0.9-1.5-0.9-1.8c0-0.6,0.5-1,1-1c0.6,0,1,0.5,1,1c0,0.2-0.2,0.7-0.5,1.3c-0.7,1.1-0.9,1.7-0.9,2
		c0,0.9,0.8,1.7,1.7,1.7c0.6,0,1.1-0.3,1.4-0.7c0.3,0.4,0.8,0.7,1.4,0.7c0.9,0,1.7-0.8,1.7-1.7c0-0.1,0-0.2,0-0.4l0.4-0.7
		C51,32.8,51.2,32.1,51.2,31.8 M45.4,36.1c-0.6,0-1-0.5-1-1c0-0.2,0.2-0.7,0.5-1.3c0.1-0.1,0.2-0.2,0.2-0.4c0,0,0.1-0.1,0.1-0.2
		l0.2-0.2l0.2,0.2c0,0,0.1,0.1,0.1,0.2c0,0.1,0.1,0.2,0.2,0.4c0.3,0.6,0.5,1.1,0.5,1.3C46.4,35.7,45.9,36.1,45.4,36.1 M49,33.1
		c-0.3-0.6-0.5-1.1-0.5-1.3c0-0.6,0.5-1,1-1c0.6,0,1,0.5,1,1c0,0.3-0.3,1-0.9,1.9L49.4,34C49.3,33.7,49.2,33.4,49,33.1"/>
	<path fill="#FFFFFF" d="M49.8,31.8c0-0.2-0.2-0.3-0.3-0.3s-0.3,0.2-0.3,0.3c0,0.2,0.2,0.3,0.3,0.3C49.7,32.1,49.8,32,49.8,31.8"/>
</g>
</svg>
