<?xml version="1.0" encoding="utf-8"?>
<!-- Generator: Adobe Illustrator 18.1.0, SVG Export Plug-In . SVG Version: 6.00 Build 0)  -->
<svg version="1.1" id="Capa_1" xmlns="http://www.w3.org/2000/svg" xmlns:xlink="http://www.w3.org/1999/xlink" x="0px" y="0px"
	 viewBox="0 196.6 1280 336.9" enable-background="new 0 196.6 1280 336.9" xml:space="preserve">
<g>
	<g>
		<path fill="#EB5B5E" d="M336.1,337.6c0-35.7-28.9-64.6-64.6-64.6c-35.7,0-64.6,28.9-64.6,64.6c0,11.9,5.9,34.8,32.3,76.5
			c0,0-0.9,0,0,0c11.9,21.2,19.5,39.1,19.5,48.4c0,22.1-17.8,39.1-39.1,39.1c-22.1,0-39.1-17.8-39.1-39.1c0-9.3,6.8-26.3,18.7-47.6
			l0,0c4.3-6.8,8.5-14.4,11.9-20.4c-5.9-10.2-10.2-20.4-12.7-28.9c-3.4,6.8-6.8,13.6-11,21.2c-2.6,4.2-7.7,13.6-7.7,13.6
			s-3.4,5.1-5.1,7.6l-5.9,9.3l-5.9-9.3c-1.7-2.5-3.4-5.1-5.1-7.6c-2.5-4.3-5.1-8.5-8.5-13.6c-12.7-22.1-20.4-39.9-20.4-49.3
			c0-22.1,17.8-39.1,39.1-39.1c11.9,0,22.1,5.1,28.9,12.7c2.5-8.5,6.8-16.1,12.7-22.9c-11-9.3-25.5-15.3-41.6-15.3
			c-21.2,0-39.9,10.2-51.8,26.3C104.1,283.2,85.4,273,64.2,273c-35.7,0.8-64.6,29.7-64.6,64.6c0,12.8,6.8,37.4,37.4,84.1l7.6,11.9
			c2.6-8.5,6.8-17,11.9-27.2c-19.5-30.6-32.3-56.9-32.3-68.8c0-22.1,17.8-39.1,39.1-39.1c22.1,0,39.1,17.8,39.1,39.1
			c0,9.4-7.6,27.2-20.4,49.3c-26.3,41.6-31.4,63.7-31.4,75.6c0,35.7,28.9,64.6,64.6,64.6c21.2,0,39.9-10.2,51.8-26.3
			c11.9,16.1,30.6,26.3,51.8,26.3c35.7,0,64.6-28.9,64.6-64.6c0-3.4-0.9-8.5-2.5-15.3l17-25.5C329.3,374.9,336.1,350.3,336.1,337.6
			 M116,502.4c-22.1,0-39.1-17.8-39.1-39.1c0-9.3,7.6-27.2,20.4-49.3c2.5-4.2,5.9-9.3,7.6-13.6c1.7-2.5,3.4-5.1,5.1-7.6l5.9-9.4
			l5.9,9.4c1.7,2.5,3.4,5.1,5.1,7.6c2.5,4.2,5.1,8.5,8.5,13.6c12.7,22.1,20.4,39.9,20.4,49.3C155.1,484.5,138.1,502.4,116,502.4
			 M252.8,387.7c-12.7-22.1-20.4-39.9-20.4-49.3c0-22.1,17.8-39.1,39.1-39.1c22.1,0,39.1,17.8,39.1,39.1c0,11.9-12.7,39.1-33.1,70.5
			l-6.8,11C266.4,410.6,260.4,399.6,252.8,387.7"/>
		<path fill="#EB5B5E" d="M284.2,337.6c0-6.8-5.9-12.7-12.7-12.7c-6.8,0-12.7,5.9-12.7,12.7c0,6.8,5.9,12.8,12.7,12.8
			C279.1,350.3,284.2,344.4,284.2,337.6"/>
	</g>
	<g>
		<g>
			<path fill="#003153" d="M433.7,337.6h15.8l44.3,128.9L538.1,337h11.2l44.3,129.4l44.3-128.9h15.2l-53.8,147.8h-12.1l-43.7-125.7
				l-44,125.7h-12.1L433.7,337.6z"/>
			<path fill="#003153" d="M696,337.6h14.1v146.7H696V337.6z"/>
			<path fill="#003153" d="M765.6,337.6h14.1v26.2c9.5-15.2,22.7-29.6,48.9-29.6c25.6,0,41.4,14.7,49.5,31.6
				c9.5-16.4,25.3-31.6,52.9-31.6c34.8,0,56.4,24.4,56.4,61.3v88.9h-14.1v-87.1c0-31.6-16.4-50-43.4-50c-24.7,0-46.3,19-46.3,51.8
				v85.4h-14.1v-88c0-30.5-16.7-49.2-42.9-49.2c-26.2,0-46.9,23-46.9,52.6v84.6h-14.1V337.6z"/>
			<path fill="#003153" d="M1029,411.2v-0.6c0-42.6,29.9-76.5,69.6-76.5c41.1,0,67.3,33.4,67.3,76.8c0,2.6,0,3.5-0.3,5.8H1044
				c2.6,36.5,28.8,57.8,57.5,57.8c22.7,0,38.3-10.1,50.3-23l9.8,8.6c-15,16.1-32.5,27.6-60.7,27.6
				C1062.4,487.7,1029,456.9,1029,411.2z M1150.7,404c-2-29.6-19-57-52.6-57c-29,0-51.5,24.4-54.1,57H1150.7z"/>
			<path fill="#003153" d="M1214.8,446.6v-96.1h-21.3v-12.9h21.3v-46.9h14.1v46.9h51.5v12.9h-51.5v94.6c0,21,12.4,28.5,29.3,28.5
				c7.2,0,13.2-1.4,21.6-5.2v13.2c-7.5,3.5-14.7,5.2-23.9,5.2C1233.2,486.8,1214.8,474.5,1214.8,446.6z"/>
		</g>
		<path fill="#222D59" d="M715.7,289.8c0-6.8-5.9-12.7-12.7-12.7c-6.8,0-12.7,5.9-12.7,12.7c0,6.8,5.9,12.8,12.7,12.8
			C710.6,302.6,715.7,296.6,715.7,289.8"/>
	</g>
</g>
</svg>
