<?xml version="1.0" encoding="utf-8"?>
<!-- Generator: Adobe Illustrator 18.1.0, SVG Export Plug-In . SVG Version: 6.00 Build 0)  -->
<svg version="1.1" id="Capa_1" xmlns="http://www.w3.org/2000/svg" xmlns:xlink="http://www.w3.org/1999/xlink" x="0px" y="0px"
	 viewBox="0 0 75 75" enable-background="new 0 0 75 75" xml:space="preserve">
<g>
	<path fill="#CECDC9" d="M55.5,51.8c-0.7,0.9-2,1.1-2.9,0.4l0,0c-0.9-0.7-2.1-0.4-1.4-1.4l4-5.6c0.7-0.9,2-1.1,2.9-0.4l0,0
		c0.9,0.7,1.1,2,0.4,2.9L55.5,51.8z"/>
	<path fill="#EBEBE9" d="M61.8,46c-0.7-1-2-1.3-2.9-0.6l-10.3,7.7l-5.1-0.4l-6.3-0.4l5.3-2.9c1.1-0.3,1.8-1.5,1.5-2.6
		c-0.3-1.1-1.5-1.8-2.6-1.5l-10.9,2.7c-2.2,0.7-3.2,2.2-3.3,4h-4.8l-2.6,8.8h8.6l1.7,0.4l17.4-0.4l1.1-0.3c0.1,0,0.1-0.1,0.2-0.1
		L61.2,49C62.2,48.4,62.5,47,61.8,46z"/>
	<rect x="18.4" y="51.9" fill="#B3B3AE" width="6.2" height="8.8"/>
	<rect x="12.7" y="50.4" fill="#97968E" width="9.2" height="11.8"/>
	<path fill="#F3F3F1" d="M19.6,58.6c0.5,0.5,0.5,1.4,0,1.9c-0.5,0.5-1.4,0.5-1.9,0c-0.5-0.5-0.5-1.4,0-1.9
		C18.2,58,19.1,58,19.6,58.6z"/>
	<circle fill="#FFD166" cx="40.1" cy="29.9" r="11.8"/>
	<path fill="#CD7F32" d="M40.1,42.5c-6.9,0-12.6-5.6-12.6-12.6s5.6-12.6,12.6-12.6S52.6,23,52.6,29.9C52.7,36.9,47,42.5,40.1,42.5z
		 M40.1,19c-6,0-11,4.9-11,11s4.9,11,11,11s11-4.9,11-11C51.1,23.9,46.1,19,40.1,19z"/>
	<path fill="#CD7F32" d="M40.2,41.6c-0.2,0-0.3,0-0.4,0l0-1.6c0.5,0,1.1,0,1.6-0.1l0.2,1.6C41.1,41.6,40.7,41.6,40.2,41.6z
		 M36.1,40.9c-0.6-0.2-1.1-0.5-1.7-0.8l0.8-1.4c0.4,0.3,0.9,0.5,1.5,0.7L36.1,40.9z M45.2,40.5l-0.7-1.4c0.5-0.2,0.9-0.5,1.4-0.8
		l0.9,1.3C46.3,39.9,45.7,40.3,45.2,40.5z M31.5,37.7c-0.4-0.4-0.8-1-1.1-1.5l1.3-0.9c0.3,0.4,0.6,0.9,1,1.3L31.5,37.7z M49.4,37
		l-1.3-0.9c0.3-0.4,0.6-0.9,0.9-1.3l1.4,0.7C50.1,36,49.8,36.5,49.4,37z M29,32.8c-0.2-0.6-0.2-1.2-0.3-1.8l1.6-0.1
		c0,0.5,0.1,1.1,0.2,1.6L29,32.8z M51.6,31.9L50,31.7c0.1-0.5,0.1-1.1,0.1-1.6l1.5,0v0C51.6,30.7,51.6,31.3,51.6,31.9z M30.5,27.7
		L29,27.3c0.2-0.6,0.3-1.2,0.6-1.8l1.5,0.6C30.8,26.7,30.7,27.2,30.5,27.7z M49.6,26.9c-0.2-0.5-0.4-1-0.7-1.5l1.4-0.7
		c0.3,0.5,0.5,1.1,0.7,1.7L49.6,26.9z M32.7,23.5l-1.2-1.1c0.4-0.4,0.9-0.9,1.3-1.3l1,1.2C33.5,22.7,33.1,23.1,32.7,23.5z
		 M47.1,22.8c-0.4-0.4-0.8-0.7-1.3-1l0.9-1.3c0.5,0.4,1,0.7,1.4,1.2L47.1,22.8z M36.6,20.8l-0.6-1.5c0.6-0.2,1.2-0.4,1.8-0.5
		l0.3,1.5C37.7,20.4,37.1,20.6,36.6,20.8z M43,20.5c-0.5-0.2-1.1-0.2-1.6-0.3l0.2-1.6c0.6,0.1,1.2,0.2,1.8,0.4L43,20.5z"/>
	<path fill="#CD7F32" d="M40.1,39.1c-5.1,0-9.2-4.1-9.2-9.2s4.1-9.2,9.2-9.2s9.2,4.1,9.2,9.2C49.3,35,45.2,39.1,40.1,39.1z
		 M40.1,22.4c-4.2,0-7.6,3.4-7.6,7.6c0,4.2,3.4,7.6,7.6,7.6s7.6-3.4,7.6-7.6S44.3,22.4,40.1,22.4z"/>
	<polygon fill="#CECDC9" points="53,12.8 54.3,15.1 56.6,16.4 54.3,17.7 53,20 51.8,17.7 49.4,16.4 51.8,15.1 	"/>
	<polygon fill="#CECDC9" points="59.8,24.2 60.7,25.8 62.3,26.7 60.7,27.6 59.8,29.2 58.9,27.6 57.3,26.7 58.9,25.8 	"/>
	<path fill="#CD7F32" d="M42,27.9c-0.3-0.5-1.1-0.9-1.9-0.9c-0.9,0-1.8,0.3-1.8,1.1c0,0.7,0.9,0.9,1.8,1c1.7,0.2,3.4,0.5,3.4,2.5
		c0,1.5-1.3,2.4-2.7,2.5v1.1h-1.4v-1.1c-1.3-0.1-2.4-0.7-3-2l1.3-0.6c0.3,0.7,1.3,1.2,2.3,1.2c1,0,2-0.4,2-1.2c0-0.7-0.9-1-2-1.1
		c-1.6-0.2-3.2-0.4-3.2-2.4c0-1.5,1.3-2.2,2.6-2.3v-1h1.4v1c1,0.2,1.8,0.5,2.4,1.5L42,27.9z"/>
	<rect x="12.7" y="50.4" fill="#A4A39D" width="9.2" height="5.9"/>
</g>
</svg>
