<?xml version="1.0" encoding="utf-8"?>
<!-- Generator: Adobe Illustrator 18.1.0, SVG Export Plug-In . SVG Version: 6.00 Build 0)  -->
<svg version="1.1" id="Capa_1" xmlns="http://www.w3.org/2000/svg" xmlns:xlink="http://www.w3.org/1999/xlink" x="0px" y="0px"
	 viewBox="0 0 75 75" enable-background="new 0 0 75 75" xml:space="preserve">
<g>
	<path fill="#FFD166" d="M36.9,38.2c0,4.2-3.4,7.7-7.7,7.7c-4.2,0-7.7-3.4-7.7-7.7c0-4.2,3.4-7.7,7.7-7.7
		C33.5,30.5,36.9,34,36.9,38.2"/>
	<rect x="17.3" y="45.6" fill="#F1F1EF" width="12.3" height="17.4"/>
	<polyline fill="#B1ACA2" points="37.3,48.2 16,48.2 18.4,42.6 37.3,42.6 37.3,48.2 	"/>
	<polyline fill="#A49E90" points="17.2,45.4 16,48.2 37.3,48.2 37.3,45.4 17.2,45.4 	"/>
	<rect x="37.7" y="26.2" fill="#D9D6D2" width="18.9" height="36.8"/>
	<path fill="#7F7968" d="M45.9,56.9h2v2h-2V56.9z M45.9,53.8h2v-2h-2V53.8z M45.9,48.7h2v-2h-2V48.7z M45.9,43.6h2v-2h-2V43.6z
		 M45.9,38.5h2v-2h-2V38.5z M45.9,33.4h2v-2h-2V33.4z M40.8,58.9h2v-2h-2V58.9z M40.8,53.8h2v-2h-2V53.8z M40.8,48.7h2v-2h-2V48.7z
		 M40.8,43.6h2v-2h-2V43.6z M40.8,38.5h2v-2h-2V38.5z M40.8,33.4h2v-2h-2V33.4z M51.6,58.9h2v-2h-2V58.9z M51.6,53.8h2v-2h-2V53.8z
		 M51.6,48.7h2v-2h-2V48.7z M51.6,43.6h2v-2h-2V43.6z M51.6,38.5h2v-2h-2V38.5z M51.6,33.4h2v-2h-2V33.4z"/>
	<rect x="46.8" y="11.5" fill="#7F7968" width="0.7" height="8.5"/>
	<path fill="#EA516D" d="M46.8,15.6v-4l-5.5,0l1,1.9l-1,2.2C41.4,15.5,45.7,15.6,46.8,15.6"/>
	<path fill="#B1ACA2" d="M56.2,25.7c-1.2-3.8-4.8-6.6-9-6.6s-7.8,2.8-9,6.6H56.2"/>
	<rect x="29.6" y="37.4" fill="#FFFFFF" width="18.4" height="25.6"/>
	<rect x="29.1" y="35.9" fill="#AEAA9F" width="19.4" height="3.1"/>
	<rect x="37.3" y="25.7" fill="#BCBAB1" width="19.9" height="3.1"/>
	<path fill="#BCBAB1" d="M32.1,57.4h13.3V59H32.1V57.4z M32.1,55.9h13.3v-1.5H32.1V55.9z M32.1,52.8h13.3v-1.5H32.1V52.8z
		 M32.1,49.7h13.3v-1.5H32.1V49.7z M32.1,46.7h13.3v-1.5H32.1V46.7z M32.1,43.6h13.3V42H32.1V43.6z"/>
	<rect x="26" y="50.7" fill="#7F7968" width="1.5" height="3.1"/>
	<rect x="22.9" y="50.7" fill="#7F7968" width="1.5" height="3.1"/>
	<rect x="19.9" y="50.7" fill="#7F7968" width="1.5" height="3.1"/>
	<rect x="26" y="56.4" fill="#7F7968" width="1.5" height="3.1"/>
	<rect x="22.9" y="56.4" fill="#7F7968" width="1.5" height="3.1"/>
	<rect x="19.9" y="56.4" fill="#7F7968" width="1.5" height="3.1"/>
	<rect x="28" y="48.2" fill="#CFCDC7" width="1.5" height="13.8"/>
	<rect x="28" y="42.6" fill="#959083" width="1.5" height="2.8"/>
	<rect x="28" y="45.4" fill="#8A8475" width="1.5" height="2.8"/>
	<polyline fill="#DEDDD9" points="29.6,62 29.6,42.6 29.6,62 	"/>
	<path fill="#7F7968" d="M61.3,63.5H13.7c-0.4,0-0.8-0.3-0.8-0.8s0.3-0.8,0.8-0.8h47.5c0.4,0,0.8,0.3,0.8,0.8S61.7,63.5,61.3,63.5"
		/>
	<rect x="29.1" y="35.9" fill="#BCBAB1" width="19.4" height="1.5"/>
	<rect x="37.3" y="25.7" fill="#F1F1EF" width="19.9" height="1.5"/>
	<path fill="#A49E90" d="M56.2,25.7c-1.2-3.8-4.8-6.6-9-6.6v6.6H56.2"/>
	<path fill="#FFFFFF" d="M46,13c0-0.3-0.2-0.5-0.5-0.5c-0.3,0-0.5,0.2-0.5,0.5c0,0.1,0,0.3,0.3,0.6l0,0c0.1,0.2,0.2,0.3,0.2,0.4
		c0,0.2-0.2,0.3-0.3,0.3s-0.3-0.2-0.3-0.3c0-0.1,0-0.2,0.2-0.4l0,0c0,0,0.1-0.1,0.1-0.2c0-0.1-0.1-0.2-0.1-0.2c0,0,0,0.1-0.1,0.2
		c0,0,0,0.1-0.1,0.1c0,0,0,0,0,0.1l0,0.1l-0.1-0.1c0,0,0,0,0-0.1s0-0.1-0.1-0.1c-0.1-0.2-0.2-0.3-0.2-0.4c0-0.2,0.2-0.3,0.3-0.3
		c0.1,0,0.2,0,0.2,0.1c0-0.1,0-0.1,0.1-0.2c-0.1-0.1-0.2-0.1-0.3-0.1c-0.2,0-0.3,0.1-0.4,0.2c-0.1-0.1-0.2-0.2-0.4-0.2
		c-0.3,0-0.5,0.2-0.5,0.5c0,0.1,0,0.3,0.3,0.7l0.1,0.1c0-0.1,0-0.2,0.1-0.2c-0.2-0.2-0.3-0.5-0.3-0.6c0-0.2,0.2-0.3,0.3-0.3
		s0.3,0.2,0.3,0.3c0,0.1-0.1,0.2-0.2,0.4c-0.2,0.3-0.2,0.5-0.2,0.6c0,0.3,0.2,0.5,0.5,0.5c0.2,0,0.3-0.1,0.4-0.2
		c0.1,0.1,0.2,0.2,0.4,0.2c0.3,0,0.5-0.2,0.5-0.5c0,0,0-0.1,0-0.1l0.1-0.2C45.9,13.3,46,13.1,46,13 M44.1,14.4
		c-0.2,0-0.3-0.2-0.3-0.3c0-0.1,0.1-0.2,0.2-0.4c0,0,0-0.1,0.1-0.1c0,0,0,0,0-0.1l0-0.1l0,0.1c0,0,0,0,0,0.1s0,0.1,0.1,0.1
		c0.1,0.2,0.2,0.3,0.2,0.4C44.5,14.2,44.3,14.4,44.1,14.4 M45.3,13.4c-0.1-0.2-0.2-0.3-0.2-0.4c0-0.2,0.2-0.3,0.3-0.3
		s0.3,0.2,0.3,0.3c0,0.1-0.1,0.3-0.3,0.6l0,0.1C45.4,13.6,45.4,13.5,45.3,13.4"/>
	<path fill="#FFFFFF" d="M45.6,13C45.6,12.9,45.5,12.9,45.6,13c-0.1-0.1-0.2,0-0.2,0S45.4,13.1,45.6,13C45.5,13.1,45.6,13.1,45.6,13
		"/>
</g>
</svg>
