<?xml version="1.0" encoding="utf-8"?>
<!-- Generator: Adobe Illustrator 18.1.0, SVG Export Plug-In . SVG Version: 6.00 Build 0)  -->
<svg version="1.1" id="Capa_1" xmlns="http://www.w3.org/2000/svg" xmlns:xlink="http://www.w3.org/1999/xlink" x="0px" y="0px"
	 viewBox="0 0 75 75" enable-background="new 0 0 75 75" xml:space="preserve">
<g>
	<rect x="26.3" y="14.8" fill="#EA516D" width="19.4" height="30"/>
	<path fill="#C0435A" d="M44.9,32.5c0,4.9-4,8.8-8.9,8.8c-4.9,0-8.9-4-8.9-8.8s4-8.8,8.9-8.8C40.9,23.7,44.9,27.6,44.9,32.5"/>
	<path fill="#FFFFFF" d="M33.9,30.3c-0.5,0.3-0.9,1.2-0.9,2c0,1,0.3,1.8,1.1,1.8c0.8,0,0.9-0.9,1-1.9c0.2-1.7,0.5-3.5,2.6-3.5
		c1.6,0,2.4,1.3,2.6,2.8h1.2v1.5h-1.1c-0.1,1.3-0.7,2.5-2,3.1l-0.6-1.4c0.7-0.3,1.2-1.3,1.2-2.3c0-1.1-0.4-2-1.3-2
		c-0.8,0-1.1,1-1.2,2c-0.2,1.7-0.5,3.3-2.4,3.3c-1.5,0-2.2-1.3-2.4-2.7h-1v-1.4h1c0.2-1,0.5-1.9,1.6-2.4L33.9,30.3"/>
	<path fill="#FFFFFF" d="M37.6,19.1c0,0.9-0.7,1.6-1.6,1.6c-0.9,0-1.6-0.7-1.6-1.6c0-0.9,0.7-1.6,1.6-1.6
		C36.9,17.5,37.6,18.2,37.6,19.1"/>
	<path fill="#C0435A" d="M32.4,14.8h-6.1v6.1C29.7,20.9,32.4,18.2,32.4,14.8"/>
	<path fill="#C0435A" d="M39.6,14.8c0,3.4,2.7,6.1,6.1,6.1v-6.1H39.6"/>
	<path fill="#A49E90" d="M35.1,54.4c-1.1,0-2-0.9-2-2v-13c0-1.1,0.9-2,2-2h21.4c1.1,0,2,0.9,2,2v13.1c0,1.1-0.9,2-2,2L35.1,54.4"/>
	<path fill="#C2BEB9" d="M56.4,37.4H45.8v17.1h10.7c1.1,0,2-0.9,2-2V39.4C58.4,38.3,57.5,37.4,56.4,37.4"/>
	<rect x="33.1" y="45.9" fill="#696456" width="25.4" height="5.1"/>
	<path fill="#F7F7F5" d="M55.1,42.2h-6.4c-0.4,0-0.7-0.3-0.7-0.7c0-0.4,0.3-0.7,0.7-0.7h6.4c0.4,0,0.7,0.3,0.7,0.7
		S55.5,42.2,55.1,42.2"/>
	<path fill="#FFD166" d="M37.6,49.3c0,5.6-4.5,10.1-10.1,10.1c-5.6,0-10.1-4.5-10.1-10.1c0-5.6,4.5-10.1,10.1-10.1
		C33,39.2,37.6,43.8,37.6,49.3"/>
	<path fill="#CD7F32" d="M27.4,60.2c-6,0-10.8-4.9-10.8-10.8c0-6,4.9-10.8,10.8-10.8s10.8,4.9,10.8,10.8
		C38.3,55.3,33.4,60.2,27.4,60.2 M27.4,39.9c-5.2,0-9.5,4.2-9.5,9.5s4.2,9.5,9.5,9.5s9.5-4.2,9.5-9.5C36.8,44.1,32.6,39.9,27.4,39.9
		z"/>
	<path fill="#CD7F32" d="M27.5,59.4c-0.1,0-0.2,0-0.4,0l0-1.4c0.4,0,0.9,0,1.4,0l0.2,1.4C28.3,59.4,27.9,59.4,27.5,59.4 M24,58.8
		c-0.5-0.2-1-0.4-1.5-0.7l0.7-1.2c0.4,0.2,0.8,0.4,1.3,0.6L24,58.8z M31.8,58.5l-0.6-1.3c0.4-0.2,0.8-0.4,1.2-0.7l0.8,1.2
		C32.8,58,32.3,58.2,31.8,58.5z M20,56.1c-0.4-0.4-0.7-0.8-1-1.3l1.2-0.8c0.2,0.4,0.5,0.8,0.8,1.1L20,56.1z M35.5,55.5l-1.1-0.9
		c0.3-0.4,0.5-0.8,0.7-1.2l1.3,0.7C36.1,54.6,35.8,55,35.5,55.5z M17.8,51.9c-0.1-0.5-0.2-1.1-0.2-1.6l1.4-0.1
		c0,0.4,0.1,0.9,0.2,1.3L17.8,51.9z M37.4,51.1L36,50.8c0.1-0.4,0.1-0.9,0.1-1.4l1.4,0v0C37.6,50,37.5,50.5,37.4,51.1z M19.2,47.4
		l-1.4-0.3c0.1-0.5,0.3-1,0.5-1.5l1.3,0.6C19.4,46.5,19.3,47,19.2,47.4z M35.6,46.7c-0.2-0.4-0.3-0.9-0.5-1.3l1.3-0.7
		c0.2,0.5,0.4,1,0.7,1.5L35.6,46.7z M21.1,43.8L20,42.9c0.4-0.4,0.7-0.8,1.1-1.1l0.9,1.1C21.7,43.1,21.4,43.4,21.1,43.8z M33.4,43.3
		c-0.3-0.3-0.7-0.6-1.1-0.9l0.8-1.2c0.4,0.3,0.9,0.7,1.3,1L33.4,43.3z M24.4,41.4l-0.5-1.3c0.5-0.2,1-0.3,1.5-0.4l0.3,1.4
		C25.3,41.1,24.9,41.3,24.4,41.4z M29.9,41.2c-0.4-0.1-0.9-0.2-1.3-0.3l0.2-1.4c0.5,0.1,1.1,0.2,1.6,0.3L29.9,41.2z"/>
	<path fill="#CD7F32" d="M27.5,57.3c-4.4,0-7.9-3.5-7.9-7.9s3.5-7.9,7.9-7.9s7.9,3.5,7.9,7.9S31.9,57.3,27.5,57.3 M27.5,42.9
		c-3.6,0-6.5,2.9-6.5,6.5c0,3.6,2.9,6.5,6.5,6.5S34,53,34,49.4C34,45.8,31,42.9,27.5,42.9z"/>
	<path fill="#CD7F32" d="M29.2,47.5c-0.2-0.4-1-0.8-1.7-0.8c-0.9,0-1.6,0.2-1.6,0.9c0,0.7,0.8,0.8,1.6,0.9c1.5,0.2,3.1,0.4,3.1,2.2
		c0,1.3-1.1,2.1-2.4,2.2v1H27v-1c-1.1-0.1-2.2-0.6-2.6-1.7l1.2-0.5c0.3,0.7,1.2,1.1,2,1.1c0.9,0,1.8-0.3,1.8-1.1
		c0-0.7-0.9-0.9-1.8-1c-1.4-0.2-2.9-0.4-2.9-2.1c0-1.3,1.2-1.9,2.3-2.1v-0.9h1.3v0.9c0.9,0.1,1.6,0.4,2.1,1.4L29.2,47.5"/>
	<path fill="#D9D6D2" d="M48.7,35.6c-0.4,0-0.8-0.3-0.8-0.8V22.2c0-0.4,0.3-0.8,0.8-0.8c0.4,0,0.8,0.3,0.8,0.8v12.7
		C49.5,35.3,49.1,35.6,48.7,35.6"/>
	<path fill="#D9D6D2" d="M48.7,20.4c-0.4,0-0.8-0.3-0.8-0.8v-1c0-0.4,0.3-0.8,0.8-0.8c0.4,0,0.8,0.3,0.8,0.8v1
		C49.5,20,49.1,20.4,48.7,20.4"/>
</g>
</svg>
