<?xml version="1.0" encoding="utf-8"?>
<!-- Generator: Adobe Illustrator 18.1.0, SVG Export Plug-In . SVG Version: 6.00 Build 0)  -->
<svg version="1.1" id="Capa_1" xmlns="http://www.w3.org/2000/svg" xmlns:xlink="http://www.w3.org/1999/xlink" x="0px" y="0px"
	 viewBox="0 0 1024 768" enable-background="new 0 0 1024 768" xml:space="preserve">
<g>
	<path fill="#333333" d="M764.9,459.8c0,0,0,19.5,2,32.8c11.3-23.6,63.5-32.8,63.5-32.8v-61.4H766L764.9,459.8"/>
	<path fill="#333333" d="M842.8,357.4c0,32.8-15.4,47.1-19.5,62.5c-5.1,15.4-30.7,17.4-49.2,14.3c-21.5-3.1-30.7-8.2-34.8-31.7
		l-4.1-19.5l-9.2-11.3c0,0-1-22.5,7.2-55.3c8.2-31.7,6.1-47.1,39.9-47.1h7.2c33.8,0,60.4,26.6,60.4,59.4L842.8,357.4"/>
	<path fill="#333333" d="M730.1,380.9c0,22.5,7.2,49.2,34.8,50.2c-15.4-7.2-18.4-31.7-18.4-52.2l-12.3-7.2l7.2-45.1
		c0-20.5,2-30.7,16.4-43c-20.5,8.2-29.7,28.7-31.7,41c-4.1,33.8-4.1,48.1-4.1,48.1L730.1,380.9"/>
	<path fill="#333333" d="M863.2,327.7c5.1-35.8-20.5-78.8-74.8-82.9c-38.9-2-76.8,20.5-80.9,67.6c15.4,22.5,53.2,29.7,65.5,31.7
		c15.4,2,10.2,4.1,42-3.1c4.1,0-8.2,76.8,15.4,99.3c12.3,2,45.1-10.2,59.4-24.6C891.9,414.7,853,400.4,863.2,327.7"/>
	<path fill="#333333" d="M783.4,356.4c-3.1,14.3,4.1,27.6,15.4,29.7s22.5-7.2,25.6-22.5c3.1-14.3-4.1-27.6-15.4-29.7
		C797.7,331.8,786.4,342,783.4,356.4"/>
	<path fill="#333333" d="M684,415.7l-39.9-47.1c0-4.1,2-35.8,2-41v-15.4c0-52.2-42-94.2-94.2-94.2H514c-51.2,0-94.2,43-94.2,94.2
		v15.4c0,52.2,42,94.2,94.2,94.2h37.9c16.4,0,47.1-7.2,64.5-23.6L684,415.7"/>
	<path fill="#333333" d="M514,218.1c-51.2,0-94.2,43-94.2,94.2v15.4c0,21.5,7.2,41,19.5,56.3c7.2,1,13.3,2,19.5,2h37.9
		c59.4,0,108.5-49.2,108.5-108.5v-15.4c0-10.2-2-20.5-4.1-29.7c-14.3-9.2-30.7-13.3-49.2-13.3L514,218.1"/>
	<path fill="#333333" d="M246.8,459.8c0,0,0,19.5-2,32.8c-11.3-23.6-63.5-32.8-63.5-32.8v-61.4h64.5L246.8,459.8"/>
	<path fill="#333333" d="M245.8,472.1l-61.4-17.4c-4.1,0-23.6,8.2-29.7,15.4c-10.2,11.3-22.5,29.7-22.5,67.6c0,3.1,0,59.4,0,59.4
		h149.5c0,0,0-32.8,0-50.2C278.5,512,267.3,476.2,245.8,472.1"/>
	<path fill="#333333" d="M170,379.9c0,32.8,22.5,59.4,41,59.4h13.3c38.9,0,52.2-13.3,50.2-32.8l-1-15.4l9.2-7.2
		c0,0,5.1-36.9-11.3-67.6c-15.4-29.7,1-47.1-32.8-47.1h-8.2c-33.8,0-60.4,26.6-60.4,59.4V379.9"/>
	<path fill="#333333" d="M283.6,383c0,22.5,2,52.2-29.7,52.2c15.4-7.2,17.4-33.8,17.4-54.3l7.2-7.2l-7.2-45.1c0-20.5-2-30.7-16.4-43
		c20.5,8.2,31.7,18.4,31.7,41l5.1,49.2L283.6,383"/>
	<path fill="#333333" d="M157.7,318.5c5.1-34.8,36.9-61.4,82.9-58.4c22.5,4.1,37.9,9.2,55.3-7.2c5.1,4.1,17.4,19.5,13.3,37.9
		c-3.1,15.4-11.3,30.7-22.5,35.8c-26.6,15.4-38.9,17.4-82.9,13.3c-4.1,0-9.2,27.6-13.3,47.1c-11.3,8.2-25.6-15.4-20.5,2
		C170,388.1,153.6,342,157.7,318.5"/>
	<path fill="#333333" d="M228.4,356.4c3.1,14.3-4.1,27.6-15.4,29.7c-11.3,2-22.5-7.2-25.6-22.5c-3.1-14.3,4.1-27.6,15.4-29.7
		C215,331.8,225.3,342,228.4,356.4"/>
	<path fill="#333333" d="M244.7,539.7c-1-29.7-9.2-57.3-21.5-73.7l-39.9-10.2c-4.1,0-23.6,8.2-29.7,16.4
		c-10.2,11.3-22.5,29.7-22.5,67.6c0,3.1,0,59.4,0,59.4l113.7-1C244.7,598,245.8,560.1,244.7,539.7"/>
	<path fill="#333333" d="M326.7,365.6l39.9-47.1c0-4.1-2-35.8-2-41v-15.4c0-51.2,42-93.2,93.2-93.2h38.9c52.2,0,94.2,42,94.2,94.2
		v15.4c0,52.2-42,94.2-94.2,94.2h-37.9c-16.4,0-47.1-7.2-64.5-23.6L326.7,365.6"/>
	<path fill="#333333" d="M522.2,261.1c7.2,0,11.3,5.1,11.3,11.3c0,7.2-5.1,11.3-11.3,11.3c-7.2,0-11.3-5.1-11.3-11.3
		C512,266.2,517.1,261.1,522.2,261.1 M469,271.4c0,7.2,5.1,11.3,11.3,11.3c7.2,0,11.3-5.1,11.3-11.3c0-7.2-5.1-11.3-11.3-11.3
		S469,265.2,469,271.4z M427,271.4c0,7.2,5.1,11.3,11.3,11.3c7.2,0,11.3-5.1,11.3-11.3c0-7.2-5.1-11.3-11.3-11.3
		C432.1,261.1,427,266.2,427,271.4z"/>
	<path fill="#333333" d="M767,472.1l61.4-17.4c4.1,0,21.5,7.2,29.7,15.4c10.2,11.3,22.5,29.7,22.5,67.6c0,3.1,0,59.4,0,59.4H749.6
		c0,0-2,1-2-11.3c0-9.2-13.3-10.2-15.4-32.8C731.1,530.4,744.4,502.8,767,472.1"/>
	<path fill="#333333" d="M215,598c0-9.2,0-26.6,0-36.9c0-22.5-9.2-34.8-10.2-35.8c-3.1-4.1-9.2-4.1-12.3,0c-4.1,4.1-4.1,11.3,0,15.4
		c0,0,5.1,7.2,5.1,20.5v1c0,8.2,0,25.6,0,34.8L215,598"/>
	<path fill="#333333" d="M309.2,289.8c4.1-18.4-8.2-33.8-13.3-37.9c-17.4,17.4-32.8,11.3-55.3,7.2c-38.9-1-67.6,17.4-78.8,44
		c71.7-50.2,103.4-4.1,110.6,29.7c4.1-2,9.2-4.1,14.3-7.2C298,320.5,306.2,306.2,309.2,289.8"/>
	<path fill="#333333" d="M827.4,562.2v-1c0-13.3,4.1-19.5,5.1-20.5c3.1-4.1,3.1-11.3,0-15.4c-4.1-4.1-9.2-4.1-13.3,0
		c-1,1-10.2,12.3-10.2,34.8c-1,11.3,0,29.7,0,38.9h18.4C827.4,589.8,826.4,570.4,827.4,562.2"/>
	<path fill="#333333" d="M880.6,598c0,0,0-56.3,0-59.4c0-37.9-12.3-56.3-22.5-67.6c-8.2-8.2-25.6-15.4-29.7-15.4
		c19.5,21.5,19.5,68.6,19.5,96.3c0,15.4,0,32.8,0,47.1L880.6,598"/>
	<path fill="#333333" d="M863.2,327.7c5.1-35.8-20.5-78.8-74.8-82.9c-2,0-4.1,0-6.1,0c17.4,0,59.4,28.7,59.4,77.8
		c0,44-15.4,70.7,19.5,110.6c11.3-4.1,22.5-11.3,30.7-18.4C891.9,414.7,853,400.4,863.2,327.7"/>
</g>
</svg>
