<?xml version="1.0" encoding="utf-8"?>
<!-- Generator: Adobe Illustrator 18.1.0, SVG Export Plug-In . SVG Version: 6.00 Build 0)  -->
<svg version="1.1" id="Capa_1" xmlns="http://www.w3.org/2000/svg" xmlns:xlink="http://www.w3.org/1999/xlink" x="0px" y="0px"
	 viewBox="0 0 228 51" enable-background="new 0 0 228 51" xml:space="preserve">
<g>
	<g>
		<path fill="#EA516D" d="M61.6,14.7c0-6.1-5-11.1-11.1-11.1c-6.2,0-11.1,5-11.1,11.1c0,2.1,1.2,6.2,5.7,13.3l0,0
			c2.1,3.7,3.2,6.6,3.2,8.2c0,3.8-3.1,6.7-6.7,6.7c-3.8,0-6.7-3.1-6.7-6.7c0-1.6,1.2-4.5,3.2-8.2l0,0c0.7-1.2,1.5-2.5,2.1-3.5
			c-1-1.8-1.8-3.5-2.2-5c-0.6,1.2-1.2,2.3-1.9,3.7c-0.4,0.7-1.9,3.2-1.9,3.2c-0.3,0.4,0,0-0.3,0.4l-1,1.6l-1-1.6
			c-0.3-0.4-0.6-0.9-0.9-1.3c-0.4-0.7-0.9-1.5-1.5-2.3c-2.2-3.8-3.5-6.9-3.5-8.5c0-3.8,3.1-6.7,6.7-6.7c2.1,0,3.8,0.9,5,2.2
			c0.4-1.5,1.2-2.8,2.2-4c-1.9-1.6-4.4-2.6-7.2-2.6c-3.7,0-6.9,1.8-8.9,4.5c-2.1-2.8-5.3-4.5-8.9-4.5C8.6,3.8,3.6,8.7,3.6,14.7
			c0,2.2,1.2,6.4,6.4,14.5l1.3,2.1c0.4-1.5,1.2-2.9,2.1-4.7c-3.4-5.3-5.6-9.8-5.6-11.9c0-3.8,3.1-6.7,6.7-6.7c3.8,0,6.7,3.1,6.7,6.7
			c0,1.6-1.3,4.7-3.5,8.5c-4.5,7.2-5.4,11-5.4,13c0,6.2,5,11.1,11.1,11.1c3.7,0,6.9-1.8,8.9-4.5c2.1,2.8,5.3,4.5,8.9,4.5
			c6.2,0,11.1-5,11.1-11.1c0-0.6-0.1-1.5-0.4-2.6l2.9-4.4C60.4,21.2,61.6,16.9,61.6,14.7 M23.7,43.1c-3.8,0-6.7-3.1-6.7-6.7
			c0-1.6,1.3-4.7,3.5-8.5c0.4-0.7,1.3-2.3,1.3-2.3s0.6-0.9,0.9-1.3l1-1.6l1,1.6c0.3,0.4,0.6,0.9,0.9,1.3c0.4,0.7,0.9,1.5,1.5,2.3
			c2.2,3.8,3.5,6.9,3.5,8.5C30.4,40.1,27.5,43.1,23.7,43.1 M47.2,23.4c-2.2-3.8-3.5-6.9-3.5-8.5c0-3.8,3.1-6.7,6.7-6.7
			c3.8,0,6.7,3.1,6.7,6.7c0,2.1-2.2,6.7-5.7,12.2l-1.2,1.9C49.6,27.3,48.6,25.4,47.2,23.4"/>
		<path fill="#EA516D" d="M52.7,14.7c0-1.2-1-2.2-2.2-2.2c-1.2,0-2.2,1-2.2,2.2c0,1.2,1,2.2,2.2,2.2C51.8,16.9,52.7,15.9,52.7,14.7"
			/>
	</g>
	<g>
		<g>
			<path fill="#254152" d="M78.4,14.7h2.7l7.6,22.2l7.6-22.3h1.9l7.6,22.3l7.6-22.2h2.6L107,40.2h-2.1l-7.5-21.7l-7.6,21.7h-2.1
				L78.4,14.7z"/>
			<path fill="#254152" d="M123.6,14.7h2.4V40h-2.4V14.7z"/>
			<path fill="#254152" d="M135.6,14.7h2.4v4.5c1.6-2.6,3.9-5.1,8.4-5.1c4.4,0,7.1,2.5,8.5,5.5c1.6-2.8,4.4-5.5,9.1-5.5
				c6,0,9.7,4.2,9.7,10.6V40h-2.4V25c0-5.5-2.8-8.6-7.5-8.6c-4.3,0-8,3.3-8,8.9V40h-2.4V24.8c0-5.3-2.9-8.5-7.4-8.5
				c-4.5,0-8.1,4-8.1,9.1V40h-2.4V14.7z"/>
			<path fill="#254152" d="M181.1,27.4L181.1,27.4c0-7.4,5.2-13.3,12-13.3c7.1,0,11.6,5.8,11.6,13.2c0,0.4,0,0.6-0.1,1h-21
				c0.4,6.3,5,10,9.9,10c3.9,0,6.6-1.7,8.7-4l1.7,1.5c-2.6,2.8-5.6,4.8-10.5,4.8C186.8,40.6,181.1,35.3,181.1,27.4z M202,26.2
				c-0.3-5.1-3.3-9.8-9.1-9.8c-5,0-8.9,4.2-9.3,9.8H202z"/>
			<path fill="#254152" d="M213.1,33.5V17h-3.7v-2.2h3.7V6.7h2.4v8.1h8.9V17h-8.9v16.3c0,3.6,2.1,4.9,5.1,4.9c1.2,0,2.3-0.2,3.7-0.9
				v2.3c-1.3,0.6-2.5,0.9-4.1,0.9C216.3,40.5,213.1,38.3,213.1,33.5z"/>
		</g>
		<path fill="#254152" d="M127.1,6.5c0-1.2-1-2.2-2.2-2.2c-1.2,0-2.2,1-2.2,2.2c0,1.2,1,2.2,2.2,2.2C126.2,8.7,127.1,7.7,127.1,6.5"
			/>
	</g>
</g>
</svg>
