<?xml version="1.0" encoding="utf-8"?>
<!-- Generator: Adobe Illustrator 21.0.2, SVG Export Plug-In . SVG Version: 6.00 Build 0)  -->
<svg version="1.1" id="Layer_1" xmlns="http://www.w3.org/2000/svg" xmlns:xlink="http://www.w3.org/1999/xlink" x="0px" y="0px"
	 viewBox="0 0 91 30" style="enable-background:new 0 0 91 30;" xml:space="preserve">
<style type="text/css">
	.st0{fill:#CD2057;}
	.st1{fill:#FC5289;}
	.st2{fill:#FFFFFF;}
</style>
<polygon class="st0" points="0.5,24.6 12.5,29.9 12.5,24.6 "/>
<path class="st1" d="M89.5,24.6h-89v-23c0-0.6,0.4-1,1-1h88c0.6,0,1,0.4,1,1v22C90.5,24.1,90.1,24.6,89.5,24.6z"/>
<g>
	<path class="st2" d="M11.8,8.5h1.4V16h-1.4V8.5z"/>
	<path class="st2" d="M20,16c-0.2-0.4-0.5-0.9-0.8-1.3c-0.3-0.5-0.6-0.9-0.9-1.4c-0.3-0.5-0.7-0.9-1-1.4c-0.3-0.4-0.7-0.9-1-1.2V16
		H15V8.5h1.1c0.3,0.3,0.6,0.7,0.9,1.1c0.3,0.4,0.7,0.8,1,1.3c0.3,0.4,0.7,0.9,1,1.3c0.3,0.4,0.6,0.9,0.8,1.3v-5h1.4V16H20z"/>
	<path class="st2" d="M26.3,16.2c-0.6,0-1.1-0.1-1.5-0.3c-0.4-0.2-0.8-0.4-1.1-0.8c-0.3-0.3-0.5-0.7-0.7-1.2c-0.2-0.5-0.2-1-0.2-1.7
		c0-0.6,0.1-1.2,0.3-1.7c0.2-0.5,0.5-0.9,0.8-1.2c0.3-0.3,0.7-0.6,1.2-0.8c0.4-0.2,0.9-0.3,1.4-0.3c0.3,0,0.6,0,0.8,0.1
		s0.5,0.1,0.7,0.2c0.2,0.1,0.3,0.1,0.5,0.2s0.2,0.1,0.3,0.1L28.2,10c-0.2-0.1-0.4-0.2-0.7-0.3c-0.3-0.1-0.7-0.1-1-0.1
		c-0.3,0-0.6,0.1-0.9,0.2S25,10,24.8,10.2c-0.2,0.2-0.4,0.5-0.5,0.8c-0.1,0.3-0.2,0.7-0.2,1.2c0,0.4,0,0.8,0.1,1.1
		c0.1,0.3,0.2,0.6,0.4,0.9c0.2,0.2,0.4,0.4,0.7,0.6c0.3,0.1,0.6,0.2,1,0.2c0.5,0,0.9,0,1.2-0.1c0.3-0.1,0.5-0.2,0.7-0.3l0.4,1.1
		c-0.1,0.1-0.2,0.1-0.4,0.2c-0.1,0.1-0.3,0.1-0.5,0.2c-0.2,0.1-0.4,0.1-0.7,0.1C26.9,16.2,26.6,16.2,26.3,16.2z"/>
	<path class="st2" d="M36.6,12.3c0,0.6-0.1,1.2-0.3,1.7c-0.2,0.5-0.5,0.9-0.8,1.2c-0.3,0.3-0.7,0.6-1.2,0.7
		c-0.4,0.2-0.9,0.2-1.4,0.2s-1-0.1-1.4-0.2c-0.4-0.2-0.8-0.4-1.2-0.7c-0.3-0.3-0.6-0.7-0.8-1.2c-0.2-0.5-0.3-1.1-0.3-1.7
		c0-0.6,0.1-1.2,0.3-1.7c0.2-0.5,0.5-0.9,0.8-1.2c0.3-0.3,0.7-0.6,1.2-0.7c0.4-0.2,0.9-0.2,1.4-0.2c0.5,0,1,0.1,1.4,0.2
		c0.4,0.2,0.8,0.4,1.2,0.7c0.3,0.3,0.6,0.7,0.8,1.2C36.5,11.1,36.6,11.6,36.6,12.3z M30.8,12.3c0,0.4,0.1,0.8,0.2,1.1
		c0.1,0.3,0.2,0.6,0.4,0.9c0.2,0.2,0.4,0.4,0.7,0.5c0.3,0.1,0.6,0.2,0.9,0.2c0.3,0,0.6-0.1,0.9-0.2c0.3-0.1,0.5-0.3,0.7-0.5
		c0.2-0.2,0.3-0.5,0.4-0.9c0.1-0.3,0.2-0.7,0.2-1.1s-0.1-0.8-0.2-1.1c-0.1-0.3-0.2-0.6-0.4-0.9c-0.2-0.2-0.4-0.4-0.7-0.5
		c-0.3-0.1-0.6-0.2-0.9-0.2c-0.3,0-0.7,0.1-0.9,0.2c-0.3,0.1-0.5,0.3-0.7,0.6c-0.2,0.2-0.3,0.5-0.4,0.9
		C30.9,11.5,30.8,11.9,30.8,12.3z"/>
	<path class="st2" d="M39.8,8.5c0.2,0.3,0.3,0.6,0.5,1c0.2,0.4,0.4,0.8,0.6,1.2c0.2,0.4,0.4,0.9,0.6,1.3c0.2,0.5,0.4,0.9,0.5,1.2
		c0.2-0.4,0.3-0.8,0.5-1.2c0.2-0.4,0.4-0.9,0.6-1.3c0.2-0.4,0.4-0.9,0.6-1.2c0.2-0.4,0.4-0.7,0.5-1h1.2c0.1,0.5,0.1,1.1,0.2,1.7
		c0.1,0.6,0.1,1.2,0.2,1.9c0,0.6,0.1,1.3,0.1,1.9c0,0.7,0.1,1.3,0.1,1.9h-1.3c0-0.9-0.1-1.8-0.1-2.7c0-0.9-0.1-1.8-0.2-2.7
		c-0.1,0.2-0.2,0.4-0.3,0.6c-0.1,0.2-0.2,0.5-0.3,0.8c-0.1,0.3-0.2,0.5-0.4,0.8c-0.1,0.3-0.2,0.6-0.4,0.8c-0.1,0.3-0.2,0.5-0.3,0.8
		c-0.1,0.2-0.2,0.4-0.3,0.6h-1c-0.1-0.2-0.2-0.4-0.3-0.6c-0.1-0.2-0.2-0.5-0.3-0.8c-0.1-0.3-0.2-0.5-0.4-0.8
		c-0.1-0.3-0.3-0.6-0.4-0.8c-0.1-0.3-0.2-0.5-0.3-0.8c-0.1-0.2-0.2-0.4-0.3-0.6c-0.1,0.9-0.1,1.8-0.2,2.7c0,0.9-0.1,1.8-0.1,2.7
		h-1.3c0-0.6,0.1-1.3,0.1-1.9c0-0.7,0.1-1.3,0.1-2c0-0.7,0.1-1.3,0.2-1.9c0.1-0.6,0.1-1.2,0.2-1.7H39.8z"/>
	<path class="st2" d="M49.8,8.5c1.1,0,1.9,0.2,2.5,0.6c0.6,0.4,0.9,1,0.9,1.9c0,0.4-0.1,0.8-0.2,1.1c-0.2,0.3-0.4,0.6-0.7,0.8
		c-0.3,0.2-0.7,0.3-1.1,0.4c-0.4,0.1-0.9,0.1-1.5,0.1H49V16h-1.4V8.6c0.3-0.1,0.7-0.1,1.1-0.1C49.1,8.5,49.5,8.5,49.8,8.5z
		 M49.9,9.6c-0.3,0-0.6,0-0.9,0v2.5h0.7c0.7,0,1.2-0.1,1.5-0.3c0.4-0.2,0.5-0.5,0.5-1c0-0.2,0-0.5-0.1-0.6c-0.1-0.2-0.2-0.3-0.4-0.4
		c-0.2-0.1-0.4-0.2-0.6-0.2C50.4,9.7,50.2,9.6,49.9,9.6z"/>
	<path class="st2" d="M59.1,14.8V16h-4.7V8.5h1.4v6.3H59.1z"/>
	<path class="st2" d="M60.2,16V8.5H65v1.2h-3.4v1.8h3.1v1.1h-3.1v2.2h3.7V16H60.2z"/>
	<path class="st2" d="M71.7,8.5v1.2h-2.3V16H68V9.7h-2.3V8.5H71.7z"/>
	<path class="st2" d="M79.5,12.3c0,0.6-0.1,1.2-0.3,1.7c-0.2,0.5-0.5,0.9-0.8,1.2c-0.3,0.3-0.7,0.6-1.2,0.7
		c-0.4,0.2-0.9,0.2-1.4,0.2c-0.5,0-1-0.1-1.4-0.2c-0.4-0.2-0.8-0.4-1.2-0.7c-0.3-0.3-0.6-0.7-0.8-1.2c-0.2-0.5-0.3-1.1-0.3-1.7
		c0-0.6,0.1-1.2,0.3-1.7c0.2-0.5,0.5-0.9,0.8-1.2C73.6,9,74,8.8,74.4,8.6c0.4-0.2,0.9-0.2,1.4-0.2c0.5,0,1,0.1,1.4,0.2
		c0.4,0.2,0.8,0.4,1.2,0.7c0.3,0.3,0.6,0.7,0.8,1.2C79.4,11.1,79.5,11.6,79.5,12.3z M73.6,12.3c0,0.4,0.1,0.8,0.2,1.1
		s0.2,0.6,0.4,0.9c0.2,0.2,0.4,0.4,0.7,0.5c0.3,0.1,0.6,0.2,0.9,0.2c0.3,0,0.6-0.1,0.9-0.2c0.3-0.1,0.5-0.3,0.7-0.5
		c0.2-0.2,0.3-0.5,0.4-0.9c0.1-0.3,0.2-0.7,0.2-1.1s-0.1-0.8-0.2-1.1c-0.1-0.3-0.2-0.6-0.4-0.9c-0.2-0.2-0.4-0.4-0.7-0.5
		c-0.3-0.1-0.6-0.2-0.9-0.2c-0.3,0-0.7,0.1-0.9,0.2c-0.3,0.1-0.5,0.3-0.7,0.6c-0.2,0.2-0.3,0.5-0.4,0.9
		C73.7,11.5,73.6,11.9,73.6,12.3z"/>
</g>
</svg>
