<?xml version="1.0" encoding="utf-8"?>
<!-- Generator: Adobe Illustrator 21.0.2, SVG Export Plug-In . SVG Version: 6.00 Build 0)  -->
<svg version="1.1" id="Layer_1" xmlns="http://www.w3.org/2000/svg" xmlns:xlink="http://www.w3.org/1999/xlink" x="0px" y="0px"
	 viewBox="0 0 91 30" style="enable-background:new 0 0 91 30;" xml:space="preserve">
<style type="text/css">
	.st0{fill:#CD9000;}
	.st1{fill:#FFC200;}
	.st2{fill:#FFFFFF;}
</style>
<g>
	<polygon class="st0" points="0.5,24.6 12.5,29.9 12.5,24.6 	"/>
	<path class="st1" d="M89.5,24.6h-89v-23c0-0.6,0.4-1,1-1h88c0.6,0,1,0.4,1,1v22C90.5,24.1,90.1,24.6,89.5,24.6z"/>
	<g>
		<path class="st2" d="M23.9,8.5c1.1,0,1.9,0.2,2.5,0.6c0.6,0.4,0.9,1,0.9,1.8c0,1-0.5,1.7-1.5,2.1c0.1,0.2,0.3,0.4,0.5,0.6
			c0.2,0.2,0.3,0.5,0.5,0.8c0.2,0.3,0.4,0.6,0.5,0.9c0.2,0.3,0.3,0.6,0.4,0.9h-1.5c-0.1-0.3-0.3-0.5-0.4-0.8
			c-0.2-0.3-0.3-0.5-0.5-0.8c-0.2-0.2-0.3-0.5-0.5-0.7c-0.2-0.2-0.3-0.4-0.4-0.6c-0.1,0-0.2,0-0.3,0c-0.1,0-0.1,0-0.2,0h-0.7V16
			h-1.4V8.6c0.3-0.1,0.7-0.1,1.1-0.1C23.2,8.5,23.6,8.5,23.9,8.5z M24,9.6c-0.3,0-0.6,0-0.8,0v2.4h0.6c0.3,0,0.6,0,0.9-0.1
			c0.3,0,0.5-0.1,0.6-0.2c0.2-0.1,0.3-0.2,0.4-0.4c0.1-0.2,0.1-0.4,0.1-0.6c0-0.2,0-0.4-0.1-0.6c-0.1-0.2-0.2-0.3-0.4-0.4
			c-0.2-0.1-0.4-0.2-0.6-0.2C24.5,9.7,24.2,9.6,24,9.6z"/>
		<path class="st2" d="M28.7,16V8.5h4.8v1.2h-3.4v1.8h3.1v1.1h-3.1v2.2h3.7V16H28.7z"/>
		<path class="st2" d="M37.2,16c-0.5-1.2-1.1-2.4-1.6-3.7c-0.5-1.3-1-2.5-1.4-3.8h1.5c0.2,0.5,0.3,1,0.5,1.5c0.2,0.5,0.4,1,0.5,1.6
			c0.2,0.5,0.4,1,0.5,1.5c0.2,0.5,0.4,0.9,0.5,1.3c0.2-0.4,0.3-0.8,0.5-1.3c0.2-0.5,0.4-1,0.5-1.5c0.2-0.5,0.4-1,0.5-1.6
			c0.2-0.5,0.4-1,0.5-1.5h1.5c-0.4,1.3-0.9,2.5-1.4,3.8c-0.5,1.3-1,2.5-1.6,3.7H37.2z"/>
		<path class="st2" d="M42.4,8.5h1.4V16h-1.4V8.5z"/>
		<path class="st2" d="M47.4,15c0.5,0,0.8-0.1,1.1-0.2c0.2-0.2,0.3-0.4,0.3-0.7c0-0.2,0-0.3-0.1-0.5c-0.1-0.1-0.2-0.2-0.3-0.4
			c-0.1-0.1-0.3-0.2-0.5-0.3c-0.2-0.1-0.4-0.2-0.7-0.3c-0.3-0.1-0.5-0.2-0.8-0.3c-0.2-0.1-0.5-0.3-0.6-0.4c-0.2-0.2-0.3-0.4-0.4-0.6
			c-0.1-0.2-0.2-0.5-0.2-0.8c0-0.7,0.2-1.2,0.7-1.6c0.5-0.4,1.1-0.6,1.9-0.6c0.5,0,0.9,0.1,1.2,0.2c0.4,0.1,0.6,0.2,0.9,0.3L49.4,10
			c-0.2-0.1-0.5-0.2-0.8-0.3c-0.3-0.1-0.6-0.1-0.9-0.1c-0.4,0-0.7,0.1-0.9,0.2c-0.2,0.2-0.3,0.4-0.3,0.6c0,0.2,0,0.3,0.1,0.4
			c0.1,0.1,0.2,0.2,0.3,0.3s0.3,0.2,0.4,0.3c0.2,0.1,0.4,0.2,0.6,0.2c0.4,0.1,0.7,0.3,0.9,0.4c0.3,0.1,0.5,0.3,0.7,0.5
			c0.2,0.2,0.3,0.4,0.4,0.6c0.1,0.2,0.2,0.5,0.2,0.9c0,0.7-0.2,1.2-0.7,1.6c-0.5,0.4-1.2,0.6-2.1,0.6c-0.3,0-0.6,0-0.8-0.1
			c-0.3,0-0.5-0.1-0.7-0.1c-0.2-0.1-0.4-0.1-0.5-0.2c-0.1-0.1-0.3-0.1-0.3-0.2l0.4-1.1c0.2,0.1,0.5,0.2,0.8,0.3
			C46.5,14.9,46.9,15,47.4,15z"/>
		<path class="st2" d="M51.4,8.5h1.4V16h-1.4V8.5z"/>
		<path class="st2" d="M61.5,12.3c0,0.6-0.1,1.2-0.3,1.7c-0.2,0.5-0.5,0.9-0.8,1.2c-0.3,0.3-0.7,0.6-1.2,0.7
			c-0.4,0.2-0.9,0.2-1.4,0.2s-1-0.1-1.4-0.2c-0.4-0.2-0.8-0.4-1.2-0.7c-0.3-0.3-0.6-0.7-0.8-1.2c-0.2-0.5-0.3-1.1-0.3-1.7
			c0-0.6,0.1-1.2,0.3-1.7c0.2-0.5,0.5-0.9,0.8-1.2c0.3-0.3,0.7-0.6,1.2-0.7c0.4-0.2,0.9-0.2,1.4-0.2c0.5,0,1,0.1,1.4,0.2
			c0.4,0.2,0.8,0.4,1.2,0.7c0.3,0.3,0.6,0.7,0.8,1.2C61.4,11.1,61.5,11.6,61.5,12.3z M55.7,12.3c0,0.4,0.1,0.8,0.2,1.1
			c0.1,0.3,0.2,0.6,0.4,0.9c0.2,0.2,0.4,0.4,0.7,0.5c0.3,0.1,0.6,0.2,0.9,0.2c0.3,0,0.6-0.1,0.9-0.2c0.3-0.1,0.5-0.3,0.7-0.5
			c0.2-0.2,0.3-0.5,0.4-0.9c0.1-0.3,0.2-0.7,0.2-1.1s-0.1-0.8-0.2-1.1c-0.1-0.3-0.2-0.6-0.4-0.9c-0.2-0.2-0.4-0.4-0.7-0.5
			c-0.3-0.1-0.6-0.2-0.9-0.2c-0.3,0-0.7,0.1-0.9,0.2c-0.3,0.1-0.5,0.3-0.7,0.6c-0.2,0.2-0.3,0.5-0.4,0.9
			C55.7,11.5,55.7,11.9,55.7,12.3z M59.6,6.3L57.8,8l-0.6-0.6l1.6-1.9L59.6,6.3z"/>
		<path class="st2" d="M68,16c-0.2-0.4-0.5-0.9-0.8-1.3c-0.3-0.5-0.6-0.9-0.9-1.4c-0.3-0.5-0.7-0.9-1-1.4c-0.3-0.4-0.7-0.9-1-1.2V16
			H63V8.5h1.1c0.3,0.3,0.6,0.7,0.9,1.1c0.3,0.4,0.7,0.8,1,1.3c0.3,0.4,0.7,0.9,1,1.3c0.3,0.4,0.6,0.9,0.8,1.3v-5h1.3V16H68z"/>
	</g>
</g>
</svg>
