<?xml version="1.0" encoding="utf-8"?>
<!-- Generator: Adobe Illustrator 21.0.2, SVG Export Plug-In . SVG Version: 6.00 Build 0)  -->
<svg version="1.1" id="Layer_1" xmlns="http://www.w3.org/2000/svg" xmlns:xlink="http://www.w3.org/1999/xlink" x="0px" y="0px"
	 viewBox="0 0 91 30" style="enable-background:new 0 0 91 30;" xml:space="preserve">
<style type="text/css">
	.st0{fill:#3A9B72;}
	.st1{fill:#6CD1A4;}
	.st2{fill:#FFFFFF;}
</style>
<g>
	<polygon class="st0" points="0.5,24.6 12.5,29.9 12.5,24.6 	"/>
	<path class="st1" d="M89.5,24.6h-89v-23c0-0.6,0.4-1,1-1h88c0.6,0,1,0.4,1,1v22C90.5,24.1,90.1,24.6,89.5,24.6z"/>
	<g>
		<path class="st2" d="M18,8.5c1.1,0,1.9,0.2,2.5,0.6c0.6,0.4,0.9,1,0.9,1.9c0,0.4-0.1,0.8-0.2,1.1c-0.2,0.3-0.4,0.6-0.7,0.8
			c-0.3,0.2-0.7,0.3-1.1,0.4c-0.4,0.1-0.9,0.1-1.5,0.1h-0.7V16h-1.4V8.6c0.3-0.1,0.7-0.1,1.1-0.1C17.3,8.5,17.6,8.5,18,8.5z
			 M18.1,9.6c-0.3,0-0.6,0-0.9,0v2.5h0.7c0.7,0,1.2-0.1,1.5-0.3c0.4-0.2,0.5-0.5,0.5-1c0-0.2,0-0.5-0.1-0.6
			c-0.1-0.2-0.2-0.3-0.4-0.4c-0.2-0.1-0.4-0.2-0.6-0.2S18.3,9.6,18.1,9.6z"/>
		<path class="st2" d="M25.5,16.2c-0.5,0-1-0.1-1.3-0.2c-0.4-0.1-0.7-0.4-0.9-0.6c-0.2-0.3-0.4-0.6-0.5-0.9
			c-0.1-0.4-0.2-0.8-0.2-1.2V8.5h1.4v4.5c0,0.3,0,0.6,0.1,0.9c0.1,0.2,0.2,0.4,0.3,0.6c0.1,0.2,0.3,0.3,0.5,0.3
			c0.2,0.1,0.4,0.1,0.6,0.1c0.2,0,0.5,0,0.6-0.1c0.2-0.1,0.4-0.2,0.5-0.3c0.1-0.2,0.2-0.3,0.3-0.6s0.1-0.5,0.1-0.9V8.5h1.4v4.7
			c0,0.4-0.1,0.8-0.2,1.2c-0.1,0.4-0.3,0.7-0.5,0.9c-0.2,0.3-0.5,0.5-0.9,0.6C26.4,16.1,26,16.2,25.5,16.2z"/>
		<path class="st2" d="M32.4,16.1c-0.4,0-0.8,0-1.2,0c-0.4,0-0.8-0.1-1.1-0.2V8.6c0.2,0,0.3-0.1,0.5-0.1c0.2,0,0.4,0,0.6-0.1
			c0.2,0,0.4,0,0.6,0c0.2,0,0.4,0,0.5,0c0.5,0,0.9,0,1.3,0.1c0.4,0.1,0.7,0.2,1,0.3c0.3,0.2,0.5,0.4,0.7,0.6c0.2,0.3,0.2,0.6,0.2,1
			c0,0.4-0.1,0.7-0.3,0.9c-0.2,0.3-0.4,0.5-0.7,0.6c0.5,0.2,0.8,0.4,1,0.7c0.2,0.3,0.3,0.7,0.3,1.1c0,0.8-0.3,1.3-0.8,1.7
			C34.4,15.9,33.6,16.1,32.4,16.1z M31.5,11.6h1c0.5,0,0.9-0.1,1.2-0.2c0.3-0.1,0.4-0.4,0.4-0.8c0-0.4-0.2-0.6-0.5-0.8
			c-0.3-0.2-0.7-0.2-1.2-0.2c-0.2,0-0.4,0-0.6,0c-0.2,0-0.3,0-0.4,0V11.6z M31.5,12.6v2.3c0.2,0,0.3,0,0.5,0c0.2,0,0.3,0,0.5,0
			c0.3,0,0.5,0,0.8-0.1c0.2,0,0.5-0.1,0.6-0.2c0.2-0.1,0.3-0.2,0.4-0.4s0.2-0.3,0.2-0.6c0-0.4-0.2-0.7-0.5-0.9
			c-0.3-0.2-0.7-0.2-1.3-0.2H31.5z"/>
		<path class="st2" d="M42,14.8V16h-4.7V8.5h1.4v6.3H42z"/>
		<path class="st2" d="M43,8.5h1.4V16H43V8.5z"/>
		<path class="st2" d="M49.5,16.2c-0.6,0-1.1-0.1-1.5-0.3c-0.4-0.2-0.8-0.4-1.1-0.8c-0.3-0.3-0.5-0.7-0.7-1.2
			c-0.2-0.5-0.2-1-0.2-1.7c0-0.6,0.1-1.2,0.3-1.7c0.2-0.5,0.5-0.9,0.8-1.2c0.3-0.3,0.7-0.6,1.2-0.8c0.4-0.2,0.9-0.3,1.4-0.3
			c0.3,0,0.6,0,0.8,0.1s0.5,0.1,0.7,0.2c0.2,0.1,0.3,0.1,0.5,0.2c0.1,0.1,0.2,0.1,0.3,0.1L51.4,10c-0.2-0.1-0.4-0.2-0.7-0.3
			c-0.3-0.1-0.7-0.1-1-0.1c-0.3,0-0.6,0.1-0.9,0.2S48.2,10,48,10.2c-0.2,0.2-0.4,0.5-0.5,0.8c-0.1,0.3-0.2,0.7-0.2,1.2
			c0,0.4,0,0.8,0.1,1.1c0.1,0.3,0.2,0.6,0.4,0.9c0.2,0.2,0.4,0.4,0.7,0.6c0.3,0.1,0.6,0.2,1,0.2c0.5,0,0.9,0,1.2-0.1
			c0.3-0.1,0.5-0.2,0.7-0.3l0.4,1.1c-0.1,0.1-0.2,0.1-0.4,0.2c-0.1,0.1-0.3,0.1-0.5,0.2c-0.2,0.1-0.4,0.1-0.7,0.1
			C50.1,16.2,49.8,16.2,49.5,16.2z"/>
		<path class="st2" d="M58.3,16c-0.1-0.3-0.2-0.6-0.3-0.9c-0.1-0.3-0.2-0.6-0.3-0.9h-3.2c-0.1,0.3-0.2,0.6-0.3,0.9
			c-0.1,0.3-0.2,0.6-0.3,0.9h-1.4c0.3-0.8,0.5-1.5,0.8-2.2c0.3-0.7,0.5-1.3,0.7-1.9c0.2-0.6,0.5-1.2,0.7-1.7
			c0.2-0.5,0.5-1.1,0.7-1.6h1.3c0.3,0.5,0.5,1.1,0.7,1.6c0.2,0.5,0.5,1.1,0.7,1.7s0.5,1.2,0.7,1.9c0.3,0.7,0.5,1.4,0.8,2.2H58.3z
			 M56,10c-0.2,0.4-0.4,0.8-0.6,1.4c-0.2,0.5-0.4,1.1-0.7,1.8h2.5c-0.2-0.6-0.5-1.2-0.7-1.8C56.4,10.8,56.2,10.3,56,10z"/>
		<path class="st2" d="M67,12.3c0,0.6-0.1,1.2-0.3,1.7c-0.2,0.5-0.5,0.9-0.9,1.2c-0.4,0.3-0.8,0.6-1.3,0.7c-0.5,0.2-1.1,0.2-1.7,0.2
			c-0.3,0-0.6,0-1,0c-0.4,0-0.7-0.1-1.1-0.2V8.6c0.3-0.1,0.7-0.1,1.1-0.2c0.4,0,0.7,0,1,0c0.6,0,1.2,0.1,1.7,0.2
			c0.5,0.1,1,0.4,1.3,0.7c0.4,0.3,0.7,0.7,0.9,1.2C66.9,11,67,11.6,67,12.3z M62,14.9c0.1,0,0.2,0,0.3,0c0.1,0,0.3,0,0.5,0
			c0.9,0,1.6-0.2,2-0.7c0.4-0.5,0.7-1.1,0.7-1.9c0-0.8-0.2-1.5-0.7-2c-0.4-0.5-1.1-0.7-2-0.7c-0.4,0-0.7,0-0.9,0V14.9z"/>
		<path class="st2" d="M75.5,12.3c0,0.6-0.1,1.2-0.3,1.7c-0.2,0.5-0.5,0.9-0.8,1.2c-0.3,0.3-0.7,0.6-1.2,0.7
			c-0.4,0.2-0.9,0.2-1.4,0.2s-1-0.1-1.4-0.2c-0.4-0.2-0.8-0.4-1.2-0.7c-0.3-0.3-0.6-0.7-0.8-1.2c-0.2-0.5-0.3-1.1-0.3-1.7
			c0-0.6,0.1-1.2,0.3-1.7c0.2-0.5,0.5-0.9,0.8-1.2C69.6,9,70,8.8,70.4,8.6c0.4-0.2,0.9-0.2,1.4-0.2c0.5,0,1,0.1,1.4,0.2
			c0.4,0.2,0.8,0.4,1.2,0.7c0.3,0.3,0.6,0.7,0.8,1.2C75.4,11.1,75.5,11.6,75.5,12.3z M69.6,12.3c0,0.4,0.1,0.8,0.2,1.1
			c0.1,0.3,0.2,0.6,0.4,0.9c0.2,0.2,0.4,0.4,0.7,0.5c0.3,0.1,0.6,0.2,0.9,0.2c0.3,0,0.6-0.1,0.9-0.2c0.3-0.1,0.5-0.3,0.7-0.5
			c0.2-0.2,0.3-0.5,0.4-0.9c0.1-0.3,0.2-0.7,0.2-1.1s-0.1-0.8-0.2-1.1c-0.1-0.3-0.2-0.6-0.4-0.9c-0.2-0.2-0.4-0.4-0.7-0.5
			c-0.3-0.1-0.6-0.2-0.9-0.2c-0.3,0-0.7,0.1-0.9,0.2c-0.3,0.1-0.5,0.3-0.7,0.6c-0.2,0.2-0.3,0.5-0.4,0.9
			C69.7,11.5,69.6,11.9,69.6,12.3z"/>
	</g>
</g>
</svg>
