<?xml version="1.0" encoding="utf-8"?>
<!-- Generator: Adobe Illustrator 18.1.0, SVG Export Plug-In . SVG Version: 6.00 Build 0)  -->
<svg version="1.1" id="Capa_1" xmlns="http://www.w3.org/2000/svg" xmlns:xlink="http://www.w3.org/1999/xlink" x="0px" y="0px"
	 viewBox="0 -51.9 184 161.9" enable-background="new 0 -51.9 184 161.9" xml:space="preserve">
<g>
	<path fill="#6DC8F2" d="M90.6,47.9c0,10.4-8.4,18.9-18.9,18.9c-10.4,0-18.9-8.4-18.9-18.9c0-10.4,8.4-18.9,18.9-18.9
		C82.1,29,90.6,37.5,90.6,47.9"/>
	<rect x="42.5" y="66.1" fill="#F1F1EF" width="30.1" height="42.6"/>
	<polyline fill="#B1ACA2" points="91.4,72.4 39.3,72.4 45.2,58.6 91.4,58.6 91.4,72.4 	"/>
	<polyline fill="#A49E90" points="42.3,65.5 39.3,72.4 91.4,72.4 91.4,65.5 42.3,65.5 	"/>
	<rect x="92.6" y="18.4" fill="#D9D6D2" width="46.4" height="90.3"/>
	<path fill="#7F7968" d="M112.7,93.7h5v5h-5V93.7z M112.7,86.2h5v-5h-5V86.2z M112.7,73.6h5v-5h-5V73.6z M112.7,61.1h5v-5h-5V61.1z
		 M112.7,48.5h5v-5h-5V48.5z M112.7,36h5v-5h-5V36z M100.2,98.7h5v-5h-5V98.7z M100.2,86.2h5v-5h-5V86.2z M100.2,73.6h5v-5h-5V73.6z
		 M100.2,61.1h5v-5h-5V61.1z M100.2,48.5h5v-5h-5V48.5z M100.2,36h5v-5h-5V36z M126.5,98.7h5v-5h-5V98.7z M126.5,86.2h5v-5h-5V86.2z
		 M126.5,73.6h5v-5h-5V73.6z M126.5,61.1h5v-5h-5V61.1z M126.5,48.5h5v-5h-5V48.5z M126.5,36h5v-5h-5V36z"/>
	<rect x="114.9" y="-17.7" fill="#7F7968" width="1.8" height="20.9"/>
	<path fill="#CE5258" d="M114.9-7.7v-9.9l-13.4-0.1l2.5,4.6l-2.5,5.4C101.5-7.8,112-7.7,114.9-7.7"/>
	<path fill="#B1ACA2" d="M138,17.2C135,7.8,126.2,1,115.8,1S96.7,7.8,93.7,17.2H138"/>
	<rect x="72.6" y="46" fill="#FFFFFF" width="45.2" height="62.7"/>
	<rect x="71.3" y="42.3" fill="#AEAA9F" width="47.7" height="7.5"/>
	<rect x="91.4" y="17.2" fill="#BCBAB1" width="48.9" height="7.5"/>
	<path fill="#BCBAB1" d="M78.8,95h32.6v3.8H78.8V95z M78.8,91.2h32.6v-3.8H78.8V91.2z M78.8,83.7h32.6v-3.8H78.8V83.7z M78.8,76.1
		h32.6v-3.8H78.8V76.1z M78.8,68.6h32.6v-3.8H78.8V68.6z M78.8,61.1h32.6v-3.8H78.8V61.1z"/>
	<rect x="63.8" y="78.6" fill="#7F7968" width="3.8" height="7.5"/>
	<rect x="56.3" y="78.6" fill="#7F7968" width="3.8" height="7.5"/>
	<rect x="48.7" y="78.6" fill="#7F7968" width="3.8" height="7.5"/>
	<rect x="63.8" y="92.4" fill="#7F7968" width="3.8" height="7.5"/>
	<rect x="56.3" y="92.4" fill="#7F7968" width="3.8" height="7.5"/>
	<rect x="48.7" y="92.4" fill="#7F7968" width="3.8" height="7.5"/>
	<rect x="68.8" y="72.4" fill="#CFCDC7" width="3.7" height="33.9"/>
	<rect x="68.8" y="58.6" fill="#959083" width="3.7" height="6.9"/>
	<rect x="68.8" y="65.5" fill="#8A8475" width="3.7" height="6.9"/>
	<polyline fill="#DEDDD9" points="72.6,106.2 72.6,58.6 72.6,106.2 	"/>
	<path fill="#7F7968" d="M150.3,110H33.7c-1,0-1.9-0.8-1.9-1.9s0.8-1.9,1.9-1.9h116.6c1,0,1.9,0.8,1.9,1.9S151.4,110,150.3,110"/>
	<rect x="71.3" y="42.3" fill="#BCBAB1" width="47.7" height="3.8"/>
	<rect x="91.4" y="17.2" fill="#F1F1EF" width="48.9" height="3.8"/>
	<path fill="#A49E90" d="M138,17.2C135,7.8,126.2,1,115.8,1v16.2H138"/>
	<path fill="#FFFFFF" d="M112.8-14c0-0.7-0.6-1.3-1.3-1.3c-0.7,0-1.3,0.6-1.3,1.3c0,0.2,0.1,0.7,0.7,1.5c0,0,0,0,0,0
		c0.2,0.4,0.4,0.8,0.4,1c0,0.4-0.4,0.8-0.8,0.8c-0.4,0-0.8-0.4-0.8-0.8c0-0.2,0.1-0.5,0.4-1c0,0,0,0,0,0c0.1-0.1,0.2-0.3,0.2-0.4
		c-0.1-0.2-0.2-0.4-0.3-0.6c-0.1,0.1-0.1,0.3-0.2,0.4c-0.1,0.1-0.1,0.2-0.2,0.3c0,0-0.1,0.1-0.1,0.2l-0.1,0.2l-0.2-0.2
		c0,0-0.1-0.1-0.1-0.2c0-0.1-0.1-0.2-0.2-0.3c-0.3-0.4-0.4-0.8-0.4-1c0-0.4,0.4-0.8,0.8-0.8c0.2,0,0.4,0.1,0.6,0.3
		c0.1-0.2,0.1-0.3,0.3-0.5c-0.2-0.2-0.5-0.3-0.8-0.3c-0.4,0-0.8,0.2-1.1,0.5c-0.2-0.3-0.6-0.5-1.1-0.5c-0.7,0-1.3,0.6-1.3,1.3
		c0,0.3,0.1,0.7,0.8,1.7l0.2,0.2c0.1-0.2,0.1-0.4,0.2-0.5c-0.4-0.6-0.7-1.2-0.7-1.4c0-0.4,0.4-0.8,0.8-0.8c0.4,0,0.8,0.4,0.8,0.8
		c0,0.2-0.2,0.6-0.4,1c-0.5,0.8-0.6,1.3-0.6,1.5c0,0.7,0.6,1.3,1.3,1.3c0.4,0,0.8-0.2,1.1-0.5c0.2,0.3,0.6,0.5,1.1,0.5
		c0.7,0,1.3-0.6,1.3-1.3c0-0.1,0-0.2,0-0.3l0.3-0.5C112.7-13.2,112.8-13.7,112.8-14 M108.3-10.6c-0.4,0-0.8-0.4-0.8-0.8
		c0-0.2,0.2-0.6,0.4-1c0.1-0.1,0.1-0.2,0.2-0.3c0,0,0.1-0.1,0.1-0.2l0.1-0.2l0.1,0.2c0,0,0.1,0.1,0.1,0.2c0,0.1,0.1,0.2,0.2,0.3
		c0.3,0.4,0.4,0.8,0.4,1C109.1-11,108.8-10.6,108.3-10.6 M111.1-13c-0.3-0.4-0.4-0.8-0.4-1c0-0.4,0.4-0.8,0.8-0.8
		c0.4,0,0.8,0.4,0.8,0.8c0,0.2-0.3,0.8-0.7,1.4l-0.1,0.2C111.4-12.5,111.3-12.7,111.1-13"/>
	<path fill="#FFFFFF" d="M111.8-14c0-0.1-0.1-0.2-0.2-0.2c-0.1,0-0.2,0.1-0.2,0.2c0,0.1,0.1,0.2,0.2,0.2
		C111.6-13.7,111.8-13.8,111.8-14"/>
</g>
</svg>
