<?xml version="1.0" encoding="utf-8"?>
<!-- Generator: Adobe Illustrator 18.1.0, SVG Export Plug-In . SVG Version: 6.00 Build 0)  -->
<svg version="1.1" id="Capa_1" xmlns="http://www.w3.org/2000/svg" xmlns:xlink="http://www.w3.org/1999/xlink" x="0px" y="0px"
	 viewBox="0 0 30 30" enable-background="new 0 0 30 30" xml:space="preserve">
<path fill="none" stroke="#FFFFFF" stroke-width="2" stroke-miterlimit="10" d="M15,27.4c-6.9,0-12.5-5.6-12.5-12.5S8.1,2.4,15,2.4
	c6.9,0,12.5,5.6,12.5,12.5S21.9,27.4,15,27.4z"/>
<g>
	<defs>
		<path id="SVGID_1_" d="M15,10.1c1.7,0,1.9,0,2.5,0c0.6,0,0.9,0.1,1.2,0.2c0.3,0.1,0.5,0.2,0.7,0.5c0.2,0.2,0.4,0.4,0.5,0.7
			c0.1,0.2,0.2,0.5,0.2,1.2c0,0.7,0,0.9,0,2.5s0,1.9,0,2.5c0,0.6-0.1,0.9-0.2,1.2c-0.1,0.3-0.2,0.5-0.5,0.7
			c-0.2,0.2-0.4,0.4-0.7,0.5c-0.2,0.1-0.5,0.2-1.2,0.2c-0.7,0-0.8,0-2.5,0s-1.9,0-2.5,0c-0.6,0-0.9-0.1-1.2-0.2
			c-0.3-0.1-0.5-0.2-0.7-0.5c-0.2-0.2-0.4-0.4-0.5-0.7c-0.1-0.2-0.2-0.5-0.2-1.2c0-0.7,0-0.9,0-2.5s0-1.9,0-2.5
			c0-0.6,0.1-0.9,0.2-1.2c0.1-0.3,0.2-0.5,0.5-0.7c0.2-0.2,0.4-0.4,0.7-0.5c0.2-0.1,0.5-0.2,1.2-0.2C13.2,10.1,13.4,10.1,15,10.1
			 M15,8.9c-1.7,0-1.9,0-2.6,0c-0.7,0-1.1,0.1-1.5,0.3c-0.4,0.2-0.8,0.4-1.1,0.7c-0.3,0.3-0.6,0.7-0.7,1.1c-0.2,0.4-0.3,0.8-0.3,1.5
			c0,0.7,0,0.9,0,2.6s0,1.9,0,2.6c0,0.7,0.1,1.1,0.3,1.5c0.2,0.4,0.4,0.8,0.7,1.1c0.3,0.3,0.7,0.6,1.1,0.7c0.4,0.2,0.8,0.3,1.5,0.3
			c0.7,0,0.9,0,2.6,0c1.7,0,1.9,0,2.6,0c0.7,0,1.1-0.1,1.5-0.3c0.4-0.2,0.8-0.4,1.1-0.7c0.3-0.3,0.6-0.7,0.7-1.1
			c0.2-0.4,0.3-0.8,0.3-1.5c0-0.7,0-0.9,0-2.6s0-1.9,0-2.6c0-0.7-0.1-1.1-0.3-1.5c-0.2-0.4-0.4-0.8-0.7-1.1
			c-0.3-0.3-0.7-0.6-1.1-0.7C18.7,9.1,18.2,9,17.6,9C16.9,9,16.7,8.9,15,8.9"/>
	</defs>
	<clipPath id="SVGID_2_">
		<use xlink:href="#SVGID_1_"  overflow="visible"/>
	</clipPath>
	<rect x="4.6" y="4.6" clip-path="url(#SVGID_2_)" fill="#FFFFFF" width="20.8" height="21.1"/>
</g>
<g>
	<defs>
		<path id="SVGID_3_" d="M15,12c-1.8,0-3.2,1.4-3.2,3.2c0,1.8,1.4,3.2,3.2,3.2c1.8,0,3.2-1.4,3.2-3.2C18.2,13.4,16.8,12,15,12
			 M15,17.2c-1.1,0-2.1-0.9-2.1-2.1c0-1.1,0.9-2.1,2.1-2.1c1.1,0,2.1,0.9,2.1,2.1C17.1,16.3,16.2,17.2,15,17.2"/>
	</defs>
	<clipPath id="SVGID_4_">
		<use xlink:href="#SVGID_3_"  overflow="visible"/>
	</clipPath>
	<rect x="7.7" y="7.6" clip-path="url(#SVGID_4_)" fill="#FFFFFF" width="14.7" height="15"/>
</g>
<g>
	<defs>
		<path id="SVGID_5_" d="M19.1,11.8c0,0.4-0.3,0.7-0.7,0.7c-0.4,0-0.7-0.3-0.7-0.7c0-0.4,0.3-0.7,0.7-0.7
			C18.7,11.1,19.1,11.4,19.1,11.8"/>
	</defs>
	<clipPath id="SVGID_6_">
		<use xlink:href="#SVGID_5_"  overflow="visible"/>
	</clipPath>
	<rect x="13.4" y="6.8" clip-path="url(#SVGID_6_)" fill="#FFFFFF" width="9.9" height="10.2"/>
</g>
</svg>
