<?xml version="1.0" encoding="utf-8"?>
<!-- Generator: Adobe Illustrator 18.1.0, SVG Export Plug-In . SVG Version: 6.00 Build 0)  -->
<svg version="1.1" id="Capa_1" xmlns="http://www.w3.org/2000/svg" xmlns:xlink="http://www.w3.org/1999/xlink" x="0px" y="0px"
	 viewBox="-2 4 24 24" enable-background="new -2 4 24 24" xml:space="preserve">
<path fill="none" d="M-2,4h24v24H-2V4z"/>
<path opacity="0.87" fill="#212121" d="M14,15c1.7,0,3-1.3,3-3s-1.3-3-3-3s-3,1.3-3,3S12.3,15,14,15z M6,15c1.7,0,3-1.3,3-3
	S7.7,9,6,9s-3,1.3-3,3S4.3,15,6,15z M6,17c-2.3,0-7,1.2-7,3.5V23h14v-2.5C13,18.2,8.3,17,6,17z M14,17c-0.3,0-0.6,0-1,0
	c1.2,0.8,2,2,2,3.5V23h6v-2.5C21,18.2,16.3,17,14,17z"/>
</svg>
