<?xml version="1.0" encoding="utf-8"?>
<!-- Generator: Adobe Illustrator 18.1.0, SVG Export Plug-In . SVG Version: 6.00 Build 0)  -->
<svg version="1.1" id="Capa_1" xmlns="http://www.w3.org/2000/svg" xmlns:xlink="http://www.w3.org/1999/xlink" x="0px" y="0px"
	 viewBox="0 0 30 30" enable-background="new 0 0 30 30" xml:space="preserve">
<g>
	<g>
		<defs>
			<rect id="SVGID_1_" x="9.9" y="12.8" width="2.3" height="7.6"/>
		</defs>
		<clipPath id="SVGID_2_">
			<use xlink:href="#SVGID_1_"  overflow="visible"/>
		</clipPath>
		<rect x="5.6" y="8.5" clip-path="url(#SVGID_2_)" fill="#FFFFFF" width="11" height="16.2"/>
	</g>
	<g>
		<defs>
			<path id="SVGID_3_" d="M11.1,11.8c0.8,0,1.4-0.6,1.4-1.4c0-0.8-0.6-1.4-1.4-1.4c-0.8,0-1.4,0.6-1.4,1.4
				C9.7,11.2,10.3,11.8,11.1,11.8"/>
		</defs>
		<clipPath id="SVGID_4_">
			<use xlink:href="#SVGID_3_"  overflow="visible"/>
		</clipPath>
		<rect x="5.4" y="4.7" clip-path="url(#SVGID_4_)" fill="#FFFFFF" width="11.4" height="11.5"/>
	</g>
	<g>
		<defs>
			<path id="SVGID_5_" d="M16,16.4c0-1.1,0.5-1.7,1.4-1.7c0.9,0,1.3,0.6,1.3,1.7v4H21v-4.8c0-2-1.1-3-2.8-3c-1.6,0-2.3,1.2-2.3,1.2
				v-1h-2.2v7.6H16V16.4z"/>
		</defs>
		<clipPath id="SVGID_6_">
			<use xlink:href="#SVGID_5_"  overflow="visible"/>
		</clipPath>
		<rect x="9.4" y="8.2" clip-path="url(#SVGID_6_)" fill="#FFFFFF" width="15.9" height="16.5"/>
	</g>
	<path fill="none" stroke="#FFFFFF" stroke-width="2" stroke-miterlimit="10" d="M15,27.5C8.1,27.5,2.5,21.9,2.5,15S8.1,2.5,15,2.5
		S27.5,8.1,27.5,15S21.9,27.5,15,27.5z"/>
</g>
</svg>
