<?xml version="1.0" encoding="utf-8"?>
<!-- Generator: Adobe Illustrator 18.1.0, SVG Export Plug-In . SVG Version: 6.00 Build 0)  -->
<svg version="1.1" id="Capa_1" xmlns="http://www.w3.org/2000/svg" xmlns:xlink="http://www.w3.org/1999/xlink" x="0px" y="0px"
	 viewBox="0 0 30 30" enable-background="new 0 0 30 30" xml:space="preserve">
<g>
	<path fill="none" stroke="#666666" stroke-width="2" stroke-miterlimit="10" d="M15,27.5C8.1,27.5,2.5,21.9,2.5,15S8.1,2.5,15,2.5
		c6.9,0,12.5,5.6,12.5,12.5S21.9,27.5,15,27.5z"/>
	<g>
		<defs>
			<path id="SVGID_1_" d="M11.7,16.7c0.2,0.1,0.3,0,0.4-0.2c0-0.1,0.1-0.5,0.2-0.6c0.1-0.2,0-0.3-0.1-0.4c-0.3-0.4-0.5-0.8-0.5-1.5
				c0-1.9,1.5-3.7,3.8-3.7c2.1,0,3.2,1.3,3.2,3c0,2.2-1,4.1-2.4,4.1c-0.8,0-1.4-0.7-1.2-1.5c0.2-1,0.7-2,0.7-2.7
				c0-0.6-0.3-1.2-1-1.2c-0.8,0-1.5,0.9-1.5,2c0,0.7,0.2,1.2,0.2,1.2s-0.8,3.6-1,4.2c-0.3,1.2,0,2.8,0,2.9c0,0.1,0.1,0.1,0.2,0
				c0.1-0.1,1.1-1.3,1.4-2.5c0.1-0.3,0.5-2.1,0.5-2.1c0.3,0.5,1.1,1,1.9,1c2.5,0,4.2-2.3,4.2-5.3c0-2.3-1.9-4.4-4.9-4.4
				c-3.7,0-5.5,2.6-5.5,4.8C10.1,15.1,10.6,16.3,11.7,16.7"/>
		</defs>
		<clipPath id="SVGID_2_">
			<use xlink:href="#SVGID_1_"  overflow="visible"/>
		</clipPath>
		<rect x="6" y="4.6" clip-path="url(#SVGID_2_)" fill="#666666" width="18.8" height="22.1"/>
	</g>
</g>
</svg>
