<?xml version="1.0" encoding="utf-8"?>
<!-- Generator: Adobe Illustrator 18.1.0, SVG Export Plug-In . SVG Version: 6.00 Build 0)  -->
<svg version="1.1" id="Capa_1" xmlns="http://www.w3.org/2000/svg" xmlns:xlink="http://www.w3.org/1999/xlink" x="0px" y="0px"
	 viewBox="-13 14 18 18" enable-background="new -13 14 18 18" xml:space="preserve">
<path fill="none" d="M-13,14H5v18h-18V14z"/>
<path fill="#545454" d="M2,18.5h-3V17c0-0.8-0.7-1.5-1.5-1.5h-3C-6.3,15.5-7,16.2-7,17v1.5h-3c-0.8,0-1.5,0.7-1.5,1.5l0,8.2
	c0,0.8,0.7,1.5,1.5,1.5H2c0.8,0,1.5-0.7,1.5-1.5V20C3.5,19.2,2.8,18.5,2,18.5z M-2.5,18.5h-3V17h3V18.5z"/>
</svg>
