<?xml version="1.0" encoding="utf-8"?>
<!-- Generator: Adobe Illustrator 18.1.0, SVG Export Plug-In . SVG Version: 6.00 Build 0)  -->
<svg version="1.1" id="Capa_1" xmlns="http://www.w3.org/2000/svg" xmlns:xlink="http://www.w3.org/1999/xlink" x="0px" y="0px"
	 viewBox="0 0 30 30" enable-background="new 0 0 30 30" xml:space="preserve">
<g>
	<path fill="none" stroke="#666666" stroke-width="2" stroke-miterlimit="10" d="M15,27.5C8.1,27.5,2.5,21.9,2.5,15S8.1,2.5,15,2.5
		S27.5,8.1,27.5,15S21.9,27.5,15,27.5z"/>
	<g>
		<defs>
			<path id="SVGID_1_" d="M9.8,19.3c1.1,0.7,2.4,1.1,3.8,1.1c4.6,0,7.2-3.9,7-7.4c0.5-0.3,0.9-0.8,1.2-1.3c-0.4,0.2-0.9,0.3-1.4,0.4
				c0.5-0.3,0.9-0.8,1.1-1.4c-0.5,0.3-1,0.5-1.6,0.6c-0.5-0.5-1.1-0.8-1.8-0.8c-1.6,0-2.8,1.5-2.4,3c-2.1-0.1-3.9-1.1-5.1-2.6
				c-0.6,1.1-0.3,2.6,0.8,3.3c-0.4,0-0.8-0.1-1.1-0.3c0,1.1,0.8,2.2,2,2.5c-0.3,0.1-0.7,0.1-1.1,0c0.3,1,1.2,1.7,2.3,1.7
				C12.4,19.1,11.1,19.5,9.8,19.3"/>
		</defs>
		<clipPath id="SVGID_2_">
			<use xlink:href="#SVGID_1_"  overflow="visible"/>
		</clipPath>
		<rect x="5.4" y="6.3" clip-path="url(#SVGID_2_)" fill="#666666" width="20.7" height="18.5"/>
	</g>
</g>
</svg>
