<?xml version="1.0" encoding="utf-8"?>
<!-- Generator: Adobe Illustrator 18.1.0, SVG Export Plug-In . SVG Version: 6.00 Build 0)  -->
<svg version="1.1" id="Capa_1" xmlns="http://www.w3.org/2000/svg" xmlns:xlink="http://www.w3.org/1999/xlink" x="0px" y="0px"
	 viewBox="0 73 200 55" enable-background="new 0 73 200 55" xml:space="preserve">
<g>
	<path fill="#FFFFFF" d="M62.4,93.1c0-4.5-3.6-8.1-8.1-8.1s-8.1,3.6-8.1,8.1c0,1.5,0.7,4.4,4,9.6c0,0,0,0.1,0.1,0.1
		c1.5,2.7,2.3,4.8,2.3,6c0,2.8-2.2,4.9-4.9,4.9c-2.8,0-4.9-2.2-4.9-4.9c0-1.2,0.9-3.3,2.3-6v-0.1c0.5-0.9,1.1-1.7,1.5-2.4
		c-0.7-1.3-1.3-2.6-1.6-3.6c-0.4,0.9-0.9,1.7-1.4,2.7c-0.3,0.5-0.7,1.2-1,1.7c-0.2,0.3-0.4,0.6-0.6,1l-0.7,1.2l-0.7-1.2
		c-0.2-0.3-0.4-0.6-0.6-1c-0.3-0.5-0.6-1.1-1.1-1.7c-1.6-2.8-2.6-5-2.6-6.2c0-2.8,2.2-4.9,4.9-4.9c1.5,0,2.8,0.6,3.6,1.6
		c0.3-1.1,0.9-2,1.6-2.9c-1.4-1.2-3.2-1.9-5.2-1.9c-2.7,0-5,1.3-6.5,3.3c-1.5-2-3.8-3.3-6.5-3.3c-4.5,0.1-8.1,3.7-8.1,8.1
		c0,1.6,0.9,4.7,4.7,10.5l1,1.5c0.3-1.1,0.9-2.1,1.5-3.4c-2.4-3.8-4-7.1-4-8.6c0-2.8,2.2-4.9,4.9-4.9c2.8,0,4.9,2.2,4.9,4.9
		c0,1.2-1,3.4-2.6,6.2c-3.3,5.2-3.9,8-3.9,9.5c0,4.5,3.6,8.1,8.1,8.1c2.7,0,5-1.3,6.5-3.3c1.5,2,3.8,3.3,6.5,3.3
		c4.5,0,8.1-3.6,8.1-8.1c0-0.4-0.1-1.1-0.3-1.9l2.1-3.2C61.5,97.8,62.4,94.7,62.4,93.1 M34.8,113.8c-2.8,0-4.9-2.2-4.9-4.9
		c0-1.2,1-3.4,2.6-6.2c0.3-0.5,0.7-1.2,1-1.7c0.2-0.3,0.4-0.6,0.6-1l0.7-1.2l0.7,1.2c0.2,0.3,0.4,0.6,0.6,1c0.3,0.5,0.6,1.1,1.1,1.7
		c1.6,2.8,2.6,5,2.6,6.2C39.7,111.6,37.6,113.8,34.8,113.8 M51.9,99.4c-1.6-2.8-2.6-5-2.6-6.2c0-2.8,2.2-4.9,4.9-4.9
		c2.8,0,4.9,2.2,4.9,4.9c0,1.5-1.6,4.9-4.2,8.8l-0.9,1.4C53.6,102.3,52.9,100.9,51.9,99.4"/>
	<path fill="#FFFFFF" d="M55.9,93.1c0-0.9-0.7-1.6-1.6-1.6c-0.9,0-1.6,0.7-1.6,1.6c0,0.9,0.7,1.6,1.6,1.6
		C55.2,94.7,55.9,94,55.9,93.1"/>
	<path fill="#FFFFFF" d="M94.5,112.2l-4.6-13.6c-0.3-1-0.6-2.2-1.2-4h-0.1l-0.3,1.4l-0.9,2.8l-4.6,13.6h-2l-6-20.3h2l3.3,11.8
		c0.7,2.9,1.3,5.1,1.5,6.5h0.2c0.7-2.9,1.3-4.9,1.6-5.9L87.8,92h1.7l4,12.3c1,3,1.5,4.9,1.7,5.9h0.1c0.1-0.9,0.6-3,1.5-6.5L100,92
		h2.1l-5.6,20.3h-2V112.2z"/>
	<path fill="#FFFFFF" d="M106.7,86.5c0-1.2,0.4-1.8,1.2-1.8c0.4,0,0.7,0.1,1,0.4c0.2,0.3,0.3,0.7,0.3,1.4c0,0.5-0.1,1-0.3,1.3
		c-0.2,0.3-0.5,0.5-1,0.5C107.2,88.3,106.7,87.7,106.7,86.5 M108.9,112.2H107V91.9h1.9V112.2z"/>
	<path fill="#FFFFFF" d="M141.7,112.2V98.9c0-2-0.4-3.4-1.2-4.4c-0.9-1-2.3-1.4-4-1.4c-2.1,0-3.9,0.5-5,1.7c-1.1,1.2-1.6,3-1.6,5.4
		v11.9h-2V98.4c0-3.4-1.6-5.1-4.9-5.1c-2.2,0-3.7,0.6-4.8,1.9c-1.1,1.3-2,3.2-2,6v11.3h-1.9V91.9h1.6l0.4,2.8h0.1
		c0.5-1.1,1.9-1.8,3-2.3c1.1-0.5,2.1-0.9,3.5-0.9c3.3,0,5.5,1.2,6.5,3.6h0.1c0.6-1.2,1.6-2,2.8-2.7c1.2-0.6,2.7-1,4.2-1
		c2.3,0,4.4,0.6,5.5,1.8s1.7,3.1,1.7,5.6v13.3H141.7z"/>
	<path fill="#FFFFFF" d="M157.5,112.6c-3,0-5.4-1-7-2.8c-1.7-1.8-2.6-4.4-2.6-7.7s0.9-5.9,2.4-7.8c1.6-1.9,3.8-3,6.6-3
		c2.4,0,4.4,0.9,5.7,2.6c1.4,1.7,2.1,3.9,2.1,6.8v1.5h-15c0,2.8,0.6,4.9,2,6.4c1.4,1.5,3.2,2.2,5.6,2.2c1.2,0,2.2-0.1,3.1-0.2
		c0.9-0.2,2-0.5,3.4-1.1v1.7c-1.2,0.5-2.2,0.9-3.3,1.1C159.9,112.5,158.7,112.6,157.5,112.6 M157,93.1c-2,0-3.6,0.6-4.8,1.9
		c-1.2,1.3-1.9,3.2-2.1,5.6h12.8c0-2.3-0.5-4.2-1.6-5.5C160.3,93.8,158.8,93.1,157,93.1"/>
	<path fill="#FFFFFF" d="M176.5,110.9c-1.2,0-2.1-0.4-2.7-1.2c-0.5-0.7-0.9-1.9-0.9-3.5V93.5h1.4h3.8v-1.6h-3.8H173V87H171v4.9h-3.4
		v1.6h3.4v13.2c0,2,0.4,3.6,1.3,4.6s2.2,1.5,4,1.5c1.2,0,2.9-0.3,3.8-0.6v-1.5C179.3,110.7,177.6,110.9,176.5,110.9"/>
</g>
</svg>
