<?xml version="1.0" encoding="utf-8"?>
<!-- Generator: Adobe Illustrator 18.1.0, SVG Export Plug-In . SVG Version: 6.00 Build 0)  -->
<svg version="1.1" id="Capa_1" xmlns="http://www.w3.org/2000/svg" xmlns:xlink="http://www.w3.org/1999/xlink" x="0px" y="0px"
	 viewBox="0 0 150 41" enable-background="new 0 0 150 41" xml:space="preserve">
<g>
	<path fill="#EB5B5E" d="M39.6,13.9c0-4.2-3.4-7.6-7.6-7.6c-4.2,0-7.6,3.4-7.6,7.6c0,1.4,0.7,4.1,3.8,9c0,0,0,0.1,0.1,0.1
		c1.4,2.5,2.2,4.5,2.2,5.6c0,2.6-2.1,4.6-4.6,4.6c-2.6,0-4.6-2.1-4.6-4.6c0-1.1,0.8-3.1,2.2-5.6c0,0,0-0.1,0-0.1
		c0.5-0.8,1-1.6,1.4-2.3c-0.7-1.2-1.2-2.4-1.5-3.4c-0.4,0.8-0.8,1.6-1.3,2.5c-0.3,0.5-0.7,1.1-0.9,1.6c-0.2,0.3-0.4,0.6-0.6,0.9
		l-0.7,1.1l-0.7-1.1c-0.2-0.3-0.4-0.6-0.6-0.9c-0.3-0.5-0.6-1-1-1.6c-1.5-2.6-2.4-4.7-2.4-5.8c0-2.6,2.1-4.6,4.6-4.6
		c1.4,0,2.6,0.6,3.4,1.5c0.3-1,0.8-1.9,1.5-2.7c-1.3-1.1-3-1.8-4.9-1.8c-2.5,0-4.7,1.2-6.1,3.1c-1.4-1.9-3.6-3.1-6.1-3.1
		C3.4,6.4,0,9.8,0,13.9c0,1.5,0.8,4.4,4.4,9.9l0.9,1.4c0.3-1,0.8-2,1.4-3.2c-2.3-3.6-3.8-6.7-3.8-8.1c0-2.6,2.1-4.6,4.6-4.6
		c2.6,0,4.6,2.1,4.6,4.6c0,1.1-0.9,3.2-2.4,5.8c-3.1,4.9-3.7,7.5-3.7,8.9c0,4.2,3.4,7.6,7.6,7.6c2.5,0,4.7-1.2,6.1-3.1
		c1.4,1.9,3.6,3.1,6.1,3.1c4.2,0,7.6-3.4,7.6-7.6c0-0.4-0.1-1-0.3-1.8l2-3C38.8,18.3,39.6,15.4,39.6,13.9 M13.7,33.3
		c-2.6,0-4.6-2.1-4.6-4.6c0-1.1,0.9-3.2,2.4-5.8c0.3-0.5,0.7-1.1,0.9-1.6c0.2-0.3,0.4-0.6,0.6-0.9l0.7-1.1l0.7,1.1
		c0.2,0.3,0.4,0.6,0.6,0.9c0.3,0.5,0.6,1,1,1.6c1.5,2.6,2.4,4.7,2.4,5.8C18.3,31.2,16.3,33.3,13.7,33.3 M29.8,19.8
		c-1.5-2.6-2.4-4.7-2.4-5.8c0-2.6,2.1-4.6,4.6-4.6c2.6,0,4.6,2.1,4.6,4.6c0,1.4-1.5,4.6-3.9,8.3l-0.8,1.3
		C31.4,22.5,30.7,21.2,29.8,19.8"/>
	<path fill="#EB5B5E" d="M33.5,13.9c0-0.8-0.7-1.5-1.5-1.5c-0.8,0-1.5,0.7-1.5,1.5c0,0.8,0.7,1.5,1.5,1.5
		C32.9,15.4,33.5,14.7,33.5,13.9"/>
	<path fill="#222D59" d="M69.8,31.8L65.5,19c-0.3-0.9-0.6-2.1-1.1-3.8h-0.1L64,16.5l-0.8,2.6l-4.3,12.8H57l-5.6-19.1h1.9l3.1,11.1
		c0.7,2.7,1.2,4.8,1.4,6.1H58c0.7-2.7,1.2-4.6,1.5-5.5l4-11.7h1.6l3.8,11.6c0.9,2.8,1.4,4.6,1.6,5.5h0.1c0.1-0.8,0.6-2.8,1.4-6.1
		l3-11H77l-5.3,19.1H69.8z"/>
	<path fill="#222D59" d="M81.3,7.7c0-1.1,0.4-1.7,1.1-1.7c0.4,0,0.7,0.1,0.9,0.4c0.2,0.3,0.3,0.7,0.3,1.3c0,0.5-0.1,0.9-0.3,1.2
		c-0.2,0.3-0.5,0.5-0.9,0.5C81.7,9.4,81.3,8.8,81.3,7.7 M83.3,31.8h-1.8V12.7h1.8V31.8z"/>
	<path fill="#222D59" d="M114.1,31.8V19.3c0-1.9-0.4-3.2-1.1-4.1c-0.8-0.9-2.2-1.3-3.8-1.3c-2,0-3.7,0.5-4.7,1.6
		c-1,1.1-1.5,2.8-1.5,5.1v11.2h-1.9V18.8c0-3.2-1.5-4.8-4.6-4.8c-2.1,0-3.5,0.6-4.5,1.8c-1,1.2-1.9,3-1.9,5.6v10.6h-1.8V12.7h1.5
		l0.4,2.6h0.1c0.5-1,1.8-1.7,2.8-2.2c1-0.5,2-0.8,3.3-0.8c3.1,0,5.2,1.1,6.1,3.4h0.1c0.6-1.1,1.5-1.9,2.6-2.5
		c1.1-0.6,2.5-0.9,3.9-0.9c2.2,0,4.1,0.6,5.2,1.7c1.1,1.1,1.6,2.9,1.6,5.3v12.5H114.1z"/>
	<path fill="#222D59" d="M129,32.2c-2.8,0-5.1-0.9-6.6-2.6c-1.6-1.7-2.4-4.1-2.4-7.2c0-3.1,0.8-5.5,2.3-7.3c1.5-1.8,3.6-2.8,6.2-2.8
		c2.3,0,4.1,0.8,5.4,2.4c1.3,1.6,2,3.7,2,6.4v1.4h-14.1c0,2.6,0.6,4.6,1.9,6s3,2.1,5.3,2.1c1.1,0,2.1-0.1,2.9-0.2
		c0.8-0.2,1.9-0.5,3.2-1V31c-1.1,0.5-2.1,0.8-3.1,1C131.2,32.1,130.1,32.2,129,32.2 M128.5,13.9c-1.9,0-3.4,0.6-4.5,1.8
		c-1.1,1.2-1.8,3-2,5.3H134c0-2.2-0.5-3.9-1.5-5.2C131.6,14.5,130.2,13.9,128.5,13.9"/>
	<path fill="#222D59" d="M146.8,30.6c-1.1,0-2-0.4-2.5-1.1c-0.5-0.7-0.8-1.8-0.8-3.3V14.2h1.3h3.6v-1.5h-3.6h-1.3V8.1h-1.8l0,4.6
		h-3.2v1.5h3.2v12.4c0,1.9,0.4,3.4,1.2,4.3c0.8,0.9,2.1,1.4,3.8,1.4c1.1,0,2.7-0.3,3.6-0.6v-1.4C149.5,30.4,147.9,30.6,146.8,30.6"
		/>
</g>
</svg>
