<?xml version="1.0" encoding="utf-8"?>
<!-- Generator: Adobe Illustrator 18.1.0, SVG Export Plug-In . SVG Version: 6.00 Build 0)  -->
<svg version="1.1" id="Capa_1" xmlns="http://www.w3.org/2000/svg" xmlns:xlink="http://www.w3.org/1999/xlink" x="0px" y="0px"
	 viewBox="0 0 75 75" enable-background="new 0 0 75 75" xml:space="preserve">
<g>
	<path fill="#A5A49E" d="M24.2,53.1c-0.3,1.9-2.2,3.1-4,2.8l0,0c-1.9-0.3-3.1-2.2-2.8-4l2.3-12.5c0.3-1.9,2.2-3.1,4-2.8l0,0
		c1.9,0.3,3.1,2.2,2.8,4L24.2,53.1z"/>
	<path fill="#B3B3AE" d="M23.7,36.6c-1.9-0.3-3.7,0.9-4,2.8l-2.3,12.5c-0.3,1.9,0.9,3.7,2.8,4c0,0,0.1,0,0.1,0l3.5-19.2
		C23.8,36.6,23.8,36.6,23.7,36.6z"/>
	<path fill="#EBEBE9" d="M23.5,37c0,0.9-0.7,1.6-1.6,1.6h-7c-0.9,0-1.6-0.7-1.6-1.6v-5.1c0-0.9,0.7-1.6,1.6-1.6h7
		c0.9,0,1.6,0.7,1.6,1.6C23.5,31.9,23.5,37,23.5,37z"/>
	<path fill="#CECDC9" d="M13.3,34.4V37c0,0.9,0.7,1.6,1.6,1.6h7c0.9,0,1.6-0.7,1.6-1.6v-2.5H13.3z"/>
	<path fill="#EBEBE9" d="M47.4,47.6c-0.6,0-1.2-0.2-1.8-0.3l0.7-3.1c0.4,0.1,0.9,0.2,1.4,0.2L47.4,47.6z M52.9,46.9l-1-3
		c0.4-0.2,0.9-0.3,1.3-0.5l1.4,2.8C54.1,46.5,53.5,46.7,52.9,46.9z M40.7,44.9c-0.5-0.4-0.9-0.8-1.4-1.3l2.3-2.2
		c0.3,0.3,0.7,0.7,1,0.9L40.7,44.9z M58.9,42.7l-2.5-2c0.3-0.4,0.6-0.8,0.8-1.1l2.7,1.6C59.6,41.7,59.3,42.3,58.9,42.7z M36.4,38.9
		c-0.2-0.6-0.4-1.2-0.5-1.8l3.1-0.6c0.1,0.4,0.2,0.9,0.4,1.3L36.4,38.9z M61.7,35.9l-3.1-0.3c0-0.3,0-0.7,0-1c0-0.2,0-0.3,0-0.4
		l3.1-0.2v0.1c0,0.2,0,0.4,0,0.6C61.7,35.1,61.7,35.5,61.7,35.9z M39.2,32.3l-3.1-0.7c0.2-0.6,0.3-1.2,0.6-1.8l2.9,1.2
		C39.4,31.4,39.3,31.9,39.2,32.3z M57.5,30.2c-0.2-0.4-0.4-0.8-0.7-1.2l2.6-1.8c0.4,0.5,0.7,1,1,1.6L57.5,30.2z M41.9,27.5l-2.2-2.3
		c0.4-0.4,0.9-0.8,1.4-1.2l1.8,2.6C42.7,26.9,42.3,27.2,41.9,27.5z M53.6,26.2c-0.4-0.2-0.8-0.4-1.3-0.6l1.2-2.9
		c0.6,0.2,1.1,0.5,1.7,0.8L53.6,26.2z M46.9,25l-0.6-3.1c0.6-0.1,1.2-0.2,1.8-0.2l0.2,3.1C47.8,24.9,47.3,24.9,46.9,25z"/>
	<circle fill="#CECDC9" cx="48.9" cy="34.9" r="5.9"/>
	<polygon fill="#EBEBE9" points="46.8,48.1 27.8,41.3 27.8,27.6 46.8,20.7 	"/>
	<polygon fill="#CECDC9" points="27.8,34.4 27.8,41.3 46.8,48.1 46.8,34.4 	"/>
	<path fill="#C0435A" d="M50.2,48c0,0.9-0.8,1.7-1.7,1.7h-1c-0.9,0-1.7-0.8-1.7-1.7V20.8c0-0.9,0.8-1.7,1.7-1.7h1
		c0.9,0,1.7,0.8,1.7,1.7V48z"/>
	<path fill="#EA516D" d="M18.8,27.6h-0.3c-1,0-1.9,0.7-1.9,1.7v10.1c0,1,0.9,1.8,1.9,1.8h0.3h9V27.6H18.8z"/>
	<path fill="#FFFFFF" d="M31,30.4c-0.3,0-0.7-0.2-0.7-0.5c-0.1-0.4,0.1-0.9,0.5-1l5.8-2c0.4-0.1,0.9,0.1,1,0.5
		c0.1,0.4-0.1,0.9-0.5,1l-5.8,2C31.2,30.4,31.1,30.4,31,30.4z"/>
	<path fill="#FFFFFF" d="M39.1,27.6c-0.3,0-0.7-0.2-0.7-0.5c-0.1-0.4,0.1-0.9,0.5-1l0.7-0.2c0.4-0.1,0.9,0.1,1,0.5
		c0.1,0.4-0.1,0.9-0.5,1l-0.7,0.2C39.3,27.6,39.2,27.6,39.1,27.6z"/>
	<path fill="#EA516D" d="M48.5,19.1H48v30.6h0.5c0.9,0,1.7-0.8,1.7-1.7V20.8C50.2,19.9,49.4,19.1,48.5,19.1z"/>
	<path fill="#C0435A" d="M16.7,39.4c0,1,0.9,1.8,1.9,1.8h0.3h9v-6.8H16.7V39.4z"/>
</g>
</svg>
