<?xml version="1.0" encoding="utf-8"?>
<!-- Generator: Adobe Illustrator 18.1.0, SVG Export Plug-In . SVG Version: 6.00 Build 0)  -->
<svg version="1.1" id="Capa_1" xmlns="http://www.w3.org/2000/svg" xmlns:xlink="http://www.w3.org/1999/xlink" x="0px" y="0px"
	 viewBox="0 -51.9 184 161.9" enable-background="new 0 -51.9 184 161.9" xml:space="preserve">
<g>
	<path fill="#A5A49E" d="M59.4,93c-0.8,4.6-5.3,7.7-9.9,6.8l0,0c-4.6-0.8-7.7-5.3-6.8-9.9l5.6-30.6c0.8-4.6,5.3-7.7,9.9-6.8l0,0
		c4.6,0.8,7.7,5.3,6.8,9.9L59.4,93z"/>
	<path fill="#B3B3AE" d="M58.2,52.6c-4.6-0.8-9,2.2-9.9,6.8L42.7,90c-0.8,4.6,2.2,9,6.8,9.9c0.1,0,0.2,0,0.3,0l8.7-47.2
		C58.4,52.6,58.3,52.6,58.2,52.6z"/>
	<path fill="#EBEBE9" d="M57.6,53.5c0,2.2-1.7,3.9-3.9,3.9H36.5c-2.2,0-3.9-1.7-3.9-3.9V41.1c0-2.2,1.7-3.9,3.9-3.9h17.2
		c2.2,0,3.9,1.7,3.9,3.9V53.5z"/>
	<path fill="#CECDC9" d="M32.6,47.3v6.2c0,2.2,1.7,3.9,3.9,3.9h17.2c2.2,0,3.9-1.7,3.9-3.9v-6.2H32.6z"/>
	<path fill="#EBEBE9" d="M116.4,79.6c-1.5-0.1-3-0.4-4.5-0.8l1.8-7.5c1.1,0.3,2.2,0.5,3.4,0.6L116.4,79.6z M129.9,78l-2.5-7.3
		c1.1-0.4,2.1-0.8,3.2-1.3l3.5,6.9C132.7,77,131.3,77.5,129.9,78z M99.8,72.9c-1.2-0.9-2.3-2-3.4-3.1l5.6-5.3
		c0.8,0.8,1.6,1.6,2.5,2.3L99.8,72.9z M144.5,67.7l-6.1-4.8c0.7-0.9,1.4-1.9,1.9-2.8l6.7,3.9C146.3,65.2,145.5,66.5,144.5,67.7z
		 M89.4,58.2c-0.5-1.4-0.9-2.9-1.2-4.4l7.6-1.4c0.2,1.1,0.5,2.2,0.9,3.3L89.4,58.2z M151.3,51l-7.7-0.8c0.1-0.8,0.1-1.6,0.1-2.4
		c0-0.4,0-0.7,0-1.1l7.7-0.5l0,0.2c0,0.4,0,0.9,0,1.4C151.4,48.9,151.4,50,151.3,51z M96.1,42.1l-7.5-1.8c0.4-1.5,0.8-2.9,1.4-4.3
		l7.2,2.9C96.7,39.9,96.4,41,96.1,42.1z M141,36.8c-0.5-1-1.1-2-1.8-2.9l6.3-4.5c0.9,1.2,1.7,2.5,2.4,3.9L141,36.8z M102.9,30.4
		l-5.3-5.6c1.1-1,2.3-2,3.5-2.9l4.5,6.3C104.7,28.9,103.8,29.6,102.9,30.4z M131.6,27c-1-0.6-2-1.1-3.1-1.5l2.9-7.2
		c1.4,0.6,2.8,1.2,4.1,2L131.6,27z M115,24.2l-1.4-7.6c1.5-0.3,3-0.5,4.5-0.5l0.4,7.7C117.3,23.8,116.1,24,115,24.2z"/>
	<circle fill="#CECDC9" cx="119.9" cy="48.4" r="14.5"/>
	<polygon fill="#EBEBE9" points="114.8,80.8 68.3,64.1 68.3,30.5 114.8,13.7 	"/>
	<polygon fill="#CECDC9" points="68.3,47.3 68.3,64.1 114.8,80.8 114.8,47.3 	"/>
	<path fill="#CE5258" d="M123.1,80.6c0,2.3-1.9,4.2-4.2,4.2h-2.4c-2.3,0-4.2-1.9-4.2-4.2V13.9c0-2.3,1.9-4.2,4.2-4.2h2.4
		c2.3,0,4.2,1.9,4.2,4.2V80.6z"/>
	<path fill="#CE5258" d="M46.2,30.6h-0.7c-2.4,0-4.6,1.7-4.6,4.1v24.8c0,2.4,2.2,4.4,4.6,4.4h0.7h22.1V30.6H46.2z"/>
	<path fill="#FFFFFF" d="M76.1,37.3c-0.8,0-1.6-0.5-1.8-1.3c-0.3-1,0.2-2.1,1.2-2.5l14.3-4.8c1-0.3,2.1,0.2,2.5,1.2
		c0.3,1-0.2,2.1-1.2,2.5l-14.3,4.8C76.5,37.3,76.3,37.3,76.1,37.3z"/>
	<path fill="#FFFFFF" d="M95.9,30.6c-0.8,0-1.6-0.5-1.8-1.3c-0.3-1,0.2-2.1,1.2-2.5l1.8-0.6c1-0.3,2.1,0.2,2.5,1.2
		c0.3,1-0.2,2.1-1.2,2.5l-1.8,0.6C96.3,30.5,96.1,30.6,95.9,30.6z"/>
	<path fill="#EA5C5E" d="M119,9.8h-1.2v75h1.2c2.3,0,4.2-1.9,4.2-4.2V13.9C123.1,11.6,121.3,9.8,119,9.8z"/>
	<path fill="#CE5258" d="M40.9,59.5c0,2.4,2.2,4.4,4.6,4.4h0.7h22.1V47.3H40.9V59.5z"/>
</g>
</svg>
