<?xml version="1.0" encoding="utf-8"?>
<!-- Generator: Adobe Illustrator 18.1.0, SVG Export Plug-In . SVG Version: 6.00 Build 0)  -->
<svg version="1.1" id="Capa_1" xmlns="http://www.w3.org/2000/svg" xmlns:xlink="http://www.w3.org/1999/xlink" x="0px" y="0px"
	 viewBox="0 0 110 110" enable-background="new 0 0 110 110" xml:space="preserve">
<path fill="#545454" d="M55,0.1C24.7,0.1,0.1,24.7,0.1,55s24.6,54.9,54.9,54.9s54.9-24.6,54.9-54.9S85.3,0.1,55,0.1z M55,16.5
	c9.1,0,16.5,7.4,16.5,16.5S64.1,49.5,55,49.5S38.5,42.1,38.5,33S45.9,16.5,55,16.5z M55,94.5c-13.7,0-25.9-7-33-17.7
	c0.2-10.9,22-16.9,33-16.9c10.9,0,32.8,6,33,16.9C80.9,87.5,68.7,94.5,55,94.5z"/>
</svg>
