<?xml version="1.0" encoding="utf-8"?>
<!-- Generator: Adobe Illustrator 18.1.0, SVG Export Plug-In . SVG Version: 6.00 Build 0)  -->
<svg version="1.1" id="Capa_1" xmlns="http://www.w3.org/2000/svg" xmlns:xlink="http://www.w3.org/1999/xlink" x="0px" y="0px"
	 viewBox="0 -51.9 184 161.9" enable-background="new 0 -51.9 184 161.9" xml:space="preserve">
<g>
	<path fill="#CECDC9" d="M136.1,82.2c-1.6,2.2-4.8,2.7-7,1.1l0,0c-2.2-1.6-5.1-1.1-3.5-3.4l9.8-13.7c1.6-2.2,4.8-2.7,7-1.1l0,0
		c2.2,1.6,2.7,4.8,1.1,7L136.1,82.2z"/>
	<path fill="#EBEBE9" d="M151.7,68c-1.6-2.4-4.8-3.1-7.2-1.5l-25.3,19l-12.5-1.1l-15.4-1.1l13.1-7.1c2.8-0.8,4.5-3.6,3.7-6.5
		c-0.8-2.8-3.7-4.5-6.5-3.7l-26.8,6.6c-5.3,1.8-7.9,5.5-8.2,9.8H54.8L48.4,104h21.1l4.2,1.1l42.7-1.1l2.8-0.8
		c0.2-0.1,0.3-0.2,0.5-0.3l30.4-27.5C152.7,73.8,153.3,70.5,151.7,68z"/>
	<rect x="45.2" y="82.5" fill="#B3B3AE" width="15.1" height="21.5"/>
	<rect x="31.2" y="78.7" fill="#97968E" width="22.6" height="29"/>
	<path fill="#F3F3F1" d="M48.1,98.8c1.3,1.3,1.3,3.4,0,4.6c-1.3,1.3-3.4,1.3-4.6,0c-1.3-1.3-1.3-3.4,0-4.6
		C44.7,97.5,46.8,97.5,48.1,98.8z"/>
	<circle fill="#6DC8F2" cx="98.3" cy="28.6" r="28.9"/>
	<path fill="#38B0CB" d="M98.3,59.4c-17,0-30.8-13.8-30.8-30.8c0-17,13.8-30.8,30.8-30.8c17,0,30.8,13.8,30.8,30.8
		C129.2,45.6,115.3,59.4,98.3,59.4z M98.3,1.7c-14.8,0-26.9,12.1-26.9,26.9c0,14.8,12.1,26.9,26.9,26.9c14.8,0,26.9-12.1,26.9-26.9
		C125.3,13.8,113.2,1.7,98.3,1.7z"/>
	<path fill="#38B0CB" d="M98.6,57.3c-0.4,0-0.7,0-1.1,0l0.1-3.9c1.3,0,2.6,0,3.9-0.2l0.5,3.9C100.9,57.2,99.8,57.3,98.6,57.3z
		 M88.6,55.4c-1.4-0.5-2.8-1.2-4.1-2l1.9-3.4c1.1,0.7,2.3,1.2,3.6,1.7L88.6,55.4z M110.8,54.5l-1.7-3.5c1.2-0.6,2.3-1.2,3.4-2
		l2.2,3.2C113.5,53.1,112.2,53.9,110.8,54.5z M77.4,47.7c-1-1.1-1.9-2.4-2.7-3.6L78,42c0.7,1.1,1.5,2.2,2.4,3.1L77.4,47.7z
		 M121.3,45.9l-3.1-2.3c0.8-1,1.5-2.2,2.1-3.3l3.5,1.8C123,43.4,122.2,44.7,121.3,45.9z M71.1,35.7c-0.4-1.5-0.6-3-0.7-4.5l3.9-0.3
		c0.1,1.3,0.3,2.6,0.6,3.9L71.1,35.7z M126.5,33.4l-3.8-0.6c0.2-1.3,0.2-2.6,0.2-3.9l3.8-0.1v0.1C126.7,30.4,126.7,32,126.5,33.4z
		 M74.9,23.1l-3.8-0.9c0.4-1.5,0.8-2.9,1.4-4.3l3.6,1.5C75.6,20.6,75.2,21.8,74.9,23.1z M121.8,21.1c-0.4-1.2-0.9-2.5-1.6-3.6
		l3.4-1.8c0.7,1.3,1.3,2.8,1.8,4.2L121.8,21.1z M80.3,12.7l-2.9-2.6c1-1.1,2.1-2.2,3.3-3.2l2.5,3C82.1,10.8,81.2,11.7,80.3,12.7z
		 M115.5,11.2c-0.9-0.9-2-1.7-3.1-2.5l2.2-3.2c1.3,0.9,2.4,1.8,3.5,2.9L115.5,11.2z M89.9,6.1l-1.4-3.6c1.4-0.5,2.9-1,4.4-1.3
		L93.7,5C92.4,5.2,91.1,5.6,89.9,6.1z M105.4,5.4c-1.3-0.4-2.6-0.6-3.9-0.8l0.5-3.9c1.5,0.2,3,0.5,4.5,0.9L105.4,5.4z"/>
	<path fill="#38B0CB" d="M98.3,51.1c-12.4,0-22.5-10.1-22.5-22.5c0-12.4,10.1-22.5,22.5-22.5c12.4,0,22.5,10.1,22.5,22.5
		C120.9,41,110.8,51.1,98.3,51.1z M98.3,10c-10.3,0-18.6,8.4-18.6,18.6c0,10.3,8.4,18.6,18.6,18.6S117,38.9,117,28.6
		C117,18.3,108.6,10,98.3,10z"/>
	<polygon fill="#CECDC9" points="130.1,-13.4 133.2,-7.7 138.9,-4.6 133.2,-1.5 130.1,4.2 127,-1.5 121.3,-4.6 127,-7.7 	"/>
	<polygon fill="#CECDC9" points="146.7,14.6 148.8,18.5 152.8,20.7 148.8,22.8 146.7,26.7 144.6,22.8 140.6,20.7 144.6,18.5 	"/>
	<path fill="#38B0CB" d="M103,23.5c-0.7-1.2-2.8-2.1-4.7-2.1c-2.3,0-4.4,0.7-4.4,2.6c0,1.8,2.2,2.2,4.5,2.5c4.1,0.5,8.4,1.2,8.4,6.1
		c0,3.8-3.2,5.9-6.6,6.1v2.8h-3.5v-2.6c-3.1-0.3-6-1.7-7.3-4.8l3.3-1.4c0.8,1.8,3.2,2.9,5.6,2.9c2.5,0,4.8-0.9,4.8-3
		c0-1.8-2.3-2.5-4.9-2.8c-4-0.4-7.9-1.1-7.9-5.8c0-3.7,3.2-5.3,6.5-5.7v-2.4h3.5v2.4c2.4,0.4,4.5,1.3,5.8,3.8L103,23.5z"/>
	<rect x="31.2" y="78.7" fill="#A4A39D" width="22.6" height="14.5"/>
</g>
</svg>
