<?xml version="1.0" encoding="utf-8"?>
<!-- Generator: Adobe Illustrator 18.1.0, SVG Export Plug-In . SVG Version: 6.00 Build 0)  -->
<svg version="1.1" id="Capa_1" xmlns="http://www.w3.org/2000/svg" xmlns:xlink="http://www.w3.org/1999/xlink" x="0px" y="0px"
	 viewBox="0 -51.9 184 161.9" enable-background="new 0 -51.9 184 161.9" xml:space="preserve">
<g>
	<g>
		<path fill="#EBEBE9" d="M153.8,98.5c0,2.7-4.5,4.9-7.2,4.9H37.9c-2.7,0-6.6-2.2-6.6-4.9V24.3c0-2.7,2.2-4.9,4.9-4.9h112.7
			c2.7,0,4.9,2.2,4.9,4.9V98.5z"/>
		<rect x="41" y="32" fill="#FFFFFF" width="103.6" height="62.1"/>
		<path fill="#B0B0AA" d="M98.8,27.5H86.2c-1,0-1.8-0.8-1.8-1.8c0-1,0.8-1.8,1.8-1.8h12.7c1,0,1.8,0.8,1.8,1.8
			C100.7,26.7,99.8,27.5,98.8,27.5z"/>
		<path fill="#EA5C5E" d="M132.8,64.4c0,1.3-1,2.3-2.3,2.3H98.8c-1.3,0-2.3-1-2.3-2.3v-21c0-1.3,1-2.3,2.3-2.3h31.8
			c1.3,0,2.3,1,2.3,2.3V64.4z"/>
		<path fill="#CECDC9" d="M132.8,74.7h-35c-1.1,0-2-0.9-2-2c0-1.1,0.9-2,2-2h35c1.1,0,2,0.9,2,2C134.8,73.8,133.9,74.7,132.8,74.7z"
			/>
		<path fill="#CECDC9" d="M132.8,80.6h-35c-1,0-1.8-0.8-1.8-1.8c0-1,0.8-1.8,1.8-1.8h35c1,0,1.8,0.8,1.8,1.8
			C134.6,79.8,133.8,80.6,132.8,80.6z"/>
		<path fill="#CECDC9" d="M132.8,86.8h-35c-1.1,0-2-0.9-2-2c0-1.1,0.9-2,2-2h35c1.1,0,2,0.9,2,2C134.8,85.9,133.9,86.8,132.8,86.8z"
			/>
		<path fill="#CECDC9" d="M85.1,86.8H52.8c-1.1,0-2-0.9-2-2c0-1.1,0.9-2,2-2h32.3c1.1,0,2,0.9,2,2C87.1,85.9,86.2,86.8,85.1,86.8z"
			/>
		<rect x="52.1" y="41.1" fill="#CECDC9" width="33.6" height="37.7"/>
		<rect x="58.8" y="47.1" fill="#FFFFFF" width="20.2" height="25.6"/>
		<path fill="#6DC8F2" d="M68.1,67c-2.6,0-3.2-4.7-5-4.5c-2,0.2-3.8,4.2-4.2,4.6v5.6H79v-8.2c-1.1-3.3-2.7-6.9-4.5-6.9
			C72.3,57.7,70.1,67,68.1,67z"/>
		<path fill="#B0B0AA" d="M20.3,94.2v3.7c0,5.4,4.6,10.2,10.8,10.2h122.8c6.2,0,11.4-4.8,11.4-10.2v-3.7H20.3z"/>
		<path fill="#707067" d="M170,110H14c-1.1,0-2-0.9-2-2c0-1.1,0.9-2,2-2h156c1.1,0,2,0.9,2,2C172,109.1,171.1,110,170,110z"/>
		<path fill="#EBEBE9" d="M78.1,98.7h29.5c2.5,0,4.5-2,4.5-4.5H73.5C73.5,96.7,75.5,98.7,78.1,98.7z"/>
		<path fill="#CE5258" d="M96.5,53.9v10.5c0,1.3,1,2.3,2.3,2.3h31.8c1.3,0,2.3-1,2.3-2.3V53.9H96.5z"/>
	</g>
	<path fill="#FFFFFF" d="M125.6,50.6c0-2.3-1.9-4.2-4.2-4.2s-4.2,1.9-4.2,4.2c0,0.7,0.4,2.2,2.1,4.9c0,0,0,0,0,0
		c0.8,1.4,1.2,2.5,1.2,3.1c0,1.4-1.2,2.5-2.5,2.5c-1.4,0-2.5-1.2-2.5-2.5c0-0.6,0.4-1.7,1.2-3.1c0,0,0,0,0,0
		c0.3-0.4,0.5-0.9,0.7-1.2c-0.4-0.7-0.6-1.3-0.9-1.9c-0.2,0.4-0.4,0.9-0.7,1.4c-0.2,0.3-0.4,0.6-0.5,0.9c-0.1,0.1-0.2,0.3-0.3,0.5
		l-0.4,0.6l-0.5-0.6c-0.1-0.1-0.2-0.3-0.3-0.5c-0.1-0.3-0.3-0.6-0.5-0.9c-0.8-1.4-1.3-2.6-1.3-3.2c0-1.4,1.2-2.5,2.5-2.5
		c0.7,0,1.4,0.3,1.9,0.8c0.2-0.5,0.4-1,0.8-1.5c-0.7-0.6-1.7-1-2.7-1c-1.4,0-2.6,0.7-3.4,1.7c-0.7-1-2-1.7-3.4-1.7
		c-2.3,0-4.2,1.9-4.2,4.2c0,0.8,0.4,2.4,2.4,5.5l0.5,0.8c0.2-0.5,0.4-1.1,0.8-1.8c-1.3-2-2.1-3.7-2.1-4.5c0-1.4,1.2-2.5,2.5-2.5
		c1.4,0,2.5,1.2,2.5,2.5c0,0.6-0.5,1.8-1.3,3.2c-1.7,2.7-2.1,4.1-2.1,4.9c0,2.3,1.9,4.2,4.2,4.2c1.4,0,2.6-0.7,3.4-1.7
		c0.7,1,2,1.7,3.4,1.7c2.3,0,4.2-1.9,4.2-4.2c0-0.3,0-0.6-0.1-1l1.1-1.7C125.1,53.1,125.6,51.5,125.6,50.6 M111.3,61.3
		c-1.4,0-2.5-1.2-2.5-2.5c0-0.6,0.5-1.8,1.3-3.2c0.2-0.3,0.4-0.6,0.5-0.9c0.1-0.1,0.2-0.3,0.3-0.5l0.4-0.6l0.4,0.6
		c0.1,0.1,0.2,0.3,0.3,0.5c0.1,0.3,0.3,0.6,0.5,0.9c0.8,1.4,1.3,2.6,1.3,3.2C113.9,60.2,112.7,61.3,111.3,61.3 M120.1,53.9
		c-0.8-1.4-1.3-2.6-1.3-3.2c0-1.4,1.2-2.5,2.5-2.5c1.4,0,2.5,1.2,2.5,2.5c0,0.8-0.8,2.5-2.2,4.6l-0.4,0.7
		C121,55.4,120.6,54.7,120.1,53.9"/>
	<path fill="#FFFFFF" d="M122.2,50.7c0-0.4-0.4-0.8-0.8-0.8c-0.4,0-0.8,0.4-0.8,0.8c0,0.4,0.4,0.8,0.8,0.8
		C121.9,51.5,122.2,51.1,122.2,50.7"/>
</g>
</svg>
