<?xml version="1.0" encoding="utf-8"?>
<!-- Generator: Adobe Illustrator 18.1.0, SVG Export Plug-In . SVG Version: 6.00 Build 0)  -->
<svg version="1.1" id="Capa_1" xmlns="http://www.w3.org/2000/svg" xmlns:xlink="http://www.w3.org/1999/xlink" x="0px" y="0px"
	 viewBox="0 0 30 30" enable-background="new 0 0 30 30" xml:space="preserve">
<g>
	<path fill="none" stroke="#666666" stroke-width="2" stroke-miterlimit="10" d="M15,27.5C8.1,27.5,2.5,21.9,2.5,15S8.1,2.5,15,2.5
		S27.5,8.1,27.5,15S21.9,27.5,15,27.5z"/>
	<g>
		<defs>
			<path id="SVGID_1_" d="M15.1,8.2c-3.7,0-6.6,3-6.6,6.6s3,6.6,6.6,6.6c3.7,0,6.6-3,6.6-6.6S18.7,8.2,15.1,8.2 M18.1,17.8
				c-0.1,0.2-0.4,0.3-0.6,0.1c-1.6-1-3.5-1.2-5.8-0.6c-0.2,0.1-0.4-0.1-0.5-0.3c-0.1-0.2,0.1-0.4,0.3-0.5c2.5-0.6,4.7-0.3,6.4,0.7
				C18.2,17.3,18.2,17.6,18.1,17.8 M18.9,16c-0.2,0.2-0.5,0.3-0.7,0.2c-1.8-1.1-4.5-1.4-6.6-0.8c-0.3,0.1-0.6-0.1-0.6-0.3
				c-0.1-0.3,0.1-0.6,0.3-0.6c2.4-0.7,5.4-0.4,7.4,0.9C19,15.4,19.1,15.7,18.9,16 M19,14.1c-2.1-1.3-5.7-1.4-7.7-0.8
				c-0.3,0.1-0.7-0.1-0.8-0.4c-0.1-0.3,0.1-0.7,0.4-0.8c2.3-0.7,6.2-0.6,8.7,0.9c0.3,0.2,0.4,0.6,0.2,0.9
				C19.7,14.2,19.3,14.3,19,14.1"/>
		</defs>
		<clipPath id="SVGID_2_">
			<use xlink:href="#SVGID_1_"  overflow="visible"/>
		</clipPath>
		<rect x="4.1" y="3.9" clip-path="url(#SVGID_2_)" fill="#666666" width="21.9" height="21.9"/>
	</g>
</g>
</svg>
