<?xml version="1.0" encoding="utf-8"?>
<!-- Generator: Adobe Illustrator 18.1.0, SVG Export Plug-In . SVG Version: 6.00 Build 0)  -->
<svg version="1.1" id="Capa_1" xmlns="http://www.w3.org/2000/svg" xmlns:xlink="http://www.w3.org/1999/xlink" x="0px" y="0px"
	 viewBox="0 0 158 31.3" enable-background="new 0 0 158 31.3" xml:space="preserve">
<g>
	<g>
		<path fill="#EA516D" d="M41.5,8c0-4.4-3.6-8-8-8c-4.4,0-8,3.6-8,8c0,1.5,0.8,4.4,4.1,9.5l0,0c1.5,2.6,2.3,4.7,2.3,5.9
			c0,2.7-2.2,4.8-4.8,4.8c-2.7,0-4.8-2.2-4.8-4.8c0-1.2,0.8-3.2,2.3-5.9l0,0c0.5-0.8,1-1.8,1.5-2.5c-0.7-1.3-1.3-2.5-1.6-3.6
			c-0.4,0.8-0.8,1.7-1.4,2.6c-0.3,0.5-1.4,2.3-1.4,2.3c-0.2,0.3,0,0-0.2,0.3l-0.7,1.2l-0.7-1.2c-0.2-0.3-0.4-0.6-0.6-0.9
			c-0.3-0.5-0.6-1-1-1.7c-1.6-2.7-2.5-4.9-2.5-6.1c0-2.7,2.2-4.8,4.8-4.8c1.5,0,2.7,0.6,3.6,1.6c0.3-1,0.8-2,1.6-2.8
			C24.5,0.7,22.7,0,20.8,0c-2.6,0-4.9,1.3-6.4,3.2C12.9,1.3,10.6,0,8,0C3.6,0.1,0,3.7,0,8c0,1.6,0.8,4.6,4.6,10.4l0.9,1.5
			c0.3-1,0.8-2.1,1.5-3.4c-2.4-3.8-4-7-4-8.5c0-2.7,2.2-4.8,4.8-4.8c2.7,0,4.8,2.2,4.8,4.8c0,1.2-0.9,3.4-2.5,6.1
			c-3.2,5.1-3.9,7.9-3.9,9.3c0,4.4,3.6,8,8,8c2.6,0,4.9-1.3,6.4-3.2c1.5,2,3.8,3.2,6.4,3.2c4.4,0,8-3.6,8-8c0-0.4-0.1-1-0.3-1.9
			l2.1-3.1C40.7,12.6,41.5,9.5,41.5,8 M14.4,28.3c-2.7,0-4.8-2.2-4.8-4.8c0-1.2,0.9-3.4,2.5-6.1c0.3-0.5,0.9-1.7,0.9-1.7
			s0.4-0.6,0.6-0.9l0.7-1.2l0.7,1.2c0.2,0.3,0.4,0.6,0.6,0.9c0.3,0.5,0.6,1,1,1.7c1.6,2.7,2.5,4.9,2.5,6.1
			C19.2,26.1,17.1,28.3,14.4,28.3 M31.2,14.1c-1.6-2.7-2.5-4.9-2.5-6.1c0-2.7,2.2-4.8,4.8-4.8c2.7,0,4.8,2.2,4.8,4.8
			c0,1.5-1.6,4.8-4.1,8.7l-0.8,1.4C32.9,17,32.2,15.6,31.2,14.1"/>
		<path fill="#EA516D" d="M35.1,8c0-0.8-0.7-1.6-1.6-1.6C32.7,6.4,32,7.1,32,8c0,0.8,0.7,1.6,1.6,1.6C34.5,9.5,35.1,8.8,35.1,8"/>
	</g>
	<g>
		<g>
			<path fill="#FFFFFF" d="M53.5,8h2L61,23.9l5.5-16h1.4l5.5,16L78.7,8h1.9L74,26.2h-1.5l-5.4-15.5l-5.4,15.5h-1.5L53.5,8z"/>
			<path fill="#FFFFFF" d="M85.9,8h1.7v18.1h-1.7V8z"/>
			<path fill="#FFFFFF" d="M94.5,8h1.7v3.2c1.2-1.9,2.8-3.7,6-3.7c3.2,0,5.1,1.8,6.1,3.9c1.2-2,3.1-3.9,6.5-3.9c4.3,0,7,3,7,7.6v11
				h-1.7V15.3c0-3.9-2-6.2-5.4-6.2c-3.1,0-5.7,2.3-5.7,6.4v10.5h-1.7V15.2c0-3.8-2.1-6.1-5.3-6.1c-3.2,0-5.8,2.8-5.8,6.5v10.4h-1.7
				V8z"/>
			<path fill="#FFFFFF" d="M127,17L127,17c0-5.3,3.7-9.5,8.6-9.5c5.1,0,8.3,4.1,8.3,9.5c0,0.3,0,0.4,0,0.7h-15
				c0.3,4.5,3.5,7.1,7.1,7.1c2.8,0,4.7-1.2,6.2-2.8l1.2,1.1c-1.8,2-4,3.4-7.5,3.4C131.1,26.5,127,22.7,127,17z M142,16.2
				c-0.2-3.7-2.3-7-6.5-7c-3.6,0-6.4,3-6.7,7H142z"/>
			<path fill="#FFFFFF" d="M149.9,21.4V9.6h-2.6V8h2.6V2.2h1.7V8h6.4v1.6h-6.4v11.7c0,2.6,1.5,3.5,3.6,3.5c0.9,0,1.6-0.2,2.7-0.6
				v1.6c-0.9,0.4-1.8,0.6-2.9,0.6C152.2,26.4,149.9,24.9,149.9,21.4z"/>
		</g>
		<path fill="#FFFFFF" d="M88.3,2.1c0-0.8-0.7-1.6-1.6-1.6c-0.8,0-1.6,0.7-1.6,1.6c0,0.8,0.7,1.6,1.6,1.6
			C87.7,3.7,88.3,2.9,88.3,2.1"/>
	</g>
</g>
</svg>
