<?xml version="1.0" encoding="utf-8"?>
<!-- Generator: Adobe Illustrator 18.1.0, SVG Export Plug-In . SVG Version: 6.00 Build 0)  -->
<svg version="1.1" id="Capa_1" xmlns="http://www.w3.org/2000/svg" xmlns:xlink="http://www.w3.org/1999/xlink" x="0px" y="0px"
	 viewBox="0 -51.9 184 161.9" enable-background="new 0 -51.9 184 161.9" xml:space="preserve">
<g>
	<path fill="#F1F1EF" d="M152.7,76.8c0,0-0.1,4.6,0.4,7.8c2.8-5.7,15.1-7.8,15.1-7.8V62.2h-15.4v14.6"/>
	<path fill="#F1F1EF" d="M171.2,52.2c0,7.9-3.6,11.4-4.6,15c-1.2,3.8-7.4,4.1-11.7,3.4c-5.1-0.8-7.4-2-8.3-7.6l-0.9-4.7l-2.2-2.6
		c0,0-0.3-5.5,1.7-13.3c2-7.6,1.4-11.4,9.5-11.4h1.8c8,0,14.5,6.3,14.5,14.2L171.2,52.2"/>
	<path fill="#D9D6D2" d="M144.4,57.9c0,5.4,1.8,11.8,8.4,12.1c-3.8-1.7-4.3-7.6-4.3-12.5l-3-1.8l1.8-10.9c0-4.9,0.4-7.4,3.9-10.3
		c-4.9,2-7.1,6.8-7.5,9.9c-1.3,8-1.4,11.4-1.4,11.4L144.4,57.9"/>
	<path fill="#B2ADA3" d="M176.3,45c1.3-8.7-4.9-18.9-17.9-19.9c-9.3-0.4-18.3,5-19.3,16.1c3.6,5.3,12.8,7.2,15.8,7.5
		c3.8,0.4,2.4,0.9,10.1-0.7c0.9-0.1-2,18.3,3.7,23.9c3,0.4,10.9-2.4,14.3-5.9C183.1,66,173.7,62.6,176.3,45"/>
	<path fill="#F1F1EF" d="M157,52c-0.7,3.4,0.9,6.7,3.7,7.2c2.6,0.5,5.4-1.8,6.1-5.3c0.7-3.4-0.9-6.7-3.7-7.2
		C160.4,46.2,157.7,48.5,157,52"/>
	<path fill="#D9D6D2" d="M133.3,66.3L123.7,55c0.1-1.1,0.5-8.7,0.5-9.9v-3.7c0-12.4-10.1-22.5-22.5-22.5h-9.2
		C80.2,18.9,70,29.1,70,41.4v3.7c0,12.4,10.1,22.5,22.5,22.5h9.2c3.9,0,11.3-1.7,15.4-5.7L133.3,66.3"/>
	<path fill="#C0BDB6" d="M92.5,18.9C80.2,18.9,70,29.1,70,41.4v3.7c0,5.1,1.7,9.9,4.6,13.6c1.7,0.3,3.3,0.4,4.6,0.4h9.2
		c14.3,0,26.1-11.7,26.1-26.1v-3.7c0-2.5-0.4-4.9-1.1-7.2c-3.4-2.1-7.4-3.3-11.7-3.3h-9.2"/>
	<path fill="#F1F1EF" d="M28.4,76.8c0,0,0.1,4.6-0.4,7.8c-2.8-5.7-15.1-7.8-15.1-7.8V62.2h15.4v14.6"/>
	<path fill="#38B0CB" d="M28.2,79.7l-14.7-4.1c-0.9,0-5.7,2-7.1,3.8c-2.4,2.8-5.4,7-5.4,16.2c0,0.8-0.1,14.2-0.1,14.2h35.8
		c0,0,0.1-7.9,0-12.1C36.2,89.3,33.4,80.8,28.2,79.7"/>
	<path fill="#F1F1EF" d="M10.2,57.5c0,7.9,5.4,14.2,9.7,14.2H23c9.2,0,12.4-3.2,12.1-7.9l-0.3-3.6l2.1-1.8c0,0,1.2-8.9-2.8-16.3
		c-3.7-7,0.3-11.2-7.8-11.2h-1.8c-8,0-14.5,6.3-14.5,14.2L10.2,57.5"/>
	<path fill="#D9D6D2" d="M37.3,58.4c0,5.4,0.4,12.4-7,12.4c3.8-1.7,4.1-8,4.1-12.9l1.8-1.7l-1.7-10.8c0-4.9-0.4-7.4-3.9-10.3
		c4.9,2,7.5,4.5,7.5,9.9l1.3,11.7L37.3,58.4"/>
	<path fill="#B1ACA2" d="M7.1,42.9c1.2-8.3,8.8-14.6,19.9-14.1c5.4,0.9,9.1,2.2,13.2-1.7c1.3,0.9,4.2,4.7,3.3,9.1
		c-0.8,3.8-2.8,7.4-5.3,8.7c-6.3,3.6-9.3,4.1-19.9,3.2c-0.9-0.1-2.1,6.7-3.2,11.3c-2.8,2-6.1-3.8-5,0.4C10.2,59.6,6.3,48.5,7.1,42.9
		"/>
	<path fill="#F1F1EF" d="M24.1,52c0.7,3.4-0.9,6.7-3.7,7.2c-2.6,0.5-5.4-1.8-6.1-5.3c-0.7-3.4,0.9-6.7,3.7-7.2S23.4,48.5,24.1,52"/>
	<path fill="#6DC8F2" d="M27.9,96.1c-0.3-7-2-13.8-4.9-17.6l-9.6-2.6c-0.9,0-5.7,2-7.1,3.8c-2.4,2.8-5.4,7-5.4,16.2
		c0,0.8-0.1,14.2-0.1,14.2H28C28,109.9,28.2,100.8,27.9,96.1"/>
	<path fill="#F1F1EF" d="M47.7,54.3L57.3,43c-0.1-1.1-0.5-8.7-0.5-9.9v-3.7C56.7,17.1,66.9,7,79.2,7h9.2c12.4,0,22.5,10.1,22.5,22.5
		v3.7c0,12.4-10.1,22.5-22.5,22.5h-9.2c-3.9,0-11.3-1.7-15.4-5.7L47.7,54.3"/>
	<path fill="#AEAA9F" d="M94.6,29.1c1.6,0,2.8,1.2,2.8,2.8c0,1.6-1.2,2.8-2.8,2.8c-1.6,0-2.8-1.2-2.8-2.8
		C92,30.3,93.2,29.1,94.6,29.1 M81.7,31.7c0,1.6,1.2,2.8,2.6,2.8c1.6,0,2.8-1.2,2.8-2.6c0-1.6-1.2-2.8-2.6-2.8
		C82.9,28.9,81.7,30.1,81.7,31.7z M71.7,31.7c0,1.6,1.2,2.8,2.8,2.8s2.8-1.2,2.8-2.8c0-1.6-1.2-2.8-2.8-2.8
		C72.9,29.1,71.7,30.3,71.7,31.7z"/>
	<path fill="#EA5C5E" d="M153.2,79.7l14.7-4.1c0.9,0,5.1,1.8,7.1,3.8c2.5,2.6,5.4,7,5.4,16.2c0,0.8,0.1,14.2,0.1,14.2H149
		c0,0-0.5,0.3-0.5-2.6c0-2.2-3.2-2.5-3.6-7.8C144.5,93.8,147.7,87.1,153.2,79.7"/>
	<path fill="#38B0CB" d="M20.8,109.9c0.1-2.2,0.1-6.4,0-8.9c0-5.5-2.1-8.3-2.4-8.6c-0.8-1.1-2.2-1.1-3,0c-0.9,1.1-0.9,2.6-0.1,3.7
		c0,0,1.2,1.6,1.2,5c0,0.1,0,0.3,0,0.3c0.1,2,0.1,6.1,0,8.4h4.3"/>
	<path fill="#A49E90" d="M43.4,36c0.9-4.3-2-8.2-3.3-9.1c-4.1,4.1-7.8,2.8-13.2,1.7C17.7,28.3,10.7,32.8,8,39.2
		c17.1-12.1,24.9-1.1,26.6,7.2c1.1-0.5,2.2-1.1,3.4-1.7C40.7,43.4,42.7,39.9,43.4,36"/>
	<path fill="#CE5258" d="M167.7,101.2c0-0.1,0-0.3,0-0.3c0-3.2,1.1-4.7,1.2-4.9c0.8-1.1,0.8-2.6,0-3.6c-0.9-1.1-2.2-1.1-3.2,0
		c-0.3,0.3-2.4,2.9-2.4,8.3c-0.3,2.6-0.1,7.2,0,9.2h4.3C167.5,107.8,167.4,103.3,167.7,101.2"/>
	<path fill="#CE5258" d="M180.4,109.9c0,0-0.1-13.6-0.1-14.2c0-9.2-2.9-13.6-5.4-16.2c-2-2-6.2-3.8-7.1-3.8c4.7,5.1,4.6,16.4,4.6,23
		c0,3.6,0,7.9,0,11.3h8"/>
	<path fill="#C0BDB6" d="M176.3,45c1.3-8.7-4.9-18.9-17.9-19.9c-0.5,0-0.9,0-1.4,0c4.2,0.1,14.2,6.8,14.2,18.7
		c0,10.5-3.6,17,4.6,26.6c2.8-1.1,5.5-2.6,7.4-4.3C183.1,66,173.7,62.6,176.3,45"/>
</g>
</svg>
