<?xml version="1.0" encoding="utf-8"?>
<!-- Generator: Adobe Illustrator 18.1.0, SVG Export Plug-In . SVG Version: 6.00 Build 0)  -->
<svg version="1.1" id="Capa_1" xmlns="http://www.w3.org/2000/svg" xmlns:xlink="http://www.w3.org/1999/xlink" x="0px" y="0px"
	 viewBox="0 0 165.4 33" enable-background="new 0 0 165.4 33" xml:space="preserve">
<g>
	<g>
		<path fill="#EA516D" d="M43.4,8.5c0-4.6-3.7-8.3-8.3-8.3c-4.6,0-8.3,3.7-8.3,8.3c0,1.5,0.9,4.6,4.3,10l0,0
			c1.5,2.7,2.4,4.9,2.4,6.1c0,2.9-2.3,5-5,5c-2.9,0-5-2.3-5-5c0-1.2,0.9-3.4,2.4-6.1l0,0c0.5-0.9,1.1-1.9,1.5-2.6
			c-0.8-1.3-1.3-2.6-1.6-3.7c-0.4,0.9-0.9,1.8-1.4,2.7c-0.3,0.5-1.4,2.4-1.4,2.4c-0.2,0.3,0,0-0.2,0.3l-0.8,1.2l-0.8-1.2
			c-0.2-0.3-0.4-0.7-0.7-1c-0.3-0.5-0.7-1.1-1.1-1.8c-1.6-2.9-2.6-5.2-2.6-6.4c0-2.9,2.3-5,5-5c1.5,0,2.9,0.7,3.7,1.6
			c0.3-1.1,0.9-2.1,1.6-3c-1.4-1.2-3.3-2-5.4-2c-2.7,0-5.2,1.3-6.7,3.4c-1.5-2.1-3.9-3.4-6.7-3.4C3.7,0.2,0,4,0,8.5
			c0,1.6,0.9,4.8,4.8,10.9l1,1.5c0.3-1.1,0.9-2.2,1.5-3.5C4.8,13.4,3.2,10,3.2,8.5c0-2.9,2.3-5,5-5c2.9,0,5,2.3,5,5
			c0,1.2-1,3.5-2.6,6.4c-3.4,5.4-4.1,8.2-4.1,9.8c0,4.6,3.7,8.3,8.3,8.3c2.7,0,5.2-1.3,6.7-3.4c1.5,2.1,3.9,3.4,6.7,3.4
			c4.6,0,8.3-3.7,8.3-8.3c0-0.4-0.1-1.1-0.3-2l2.2-3.3C42.6,13.3,43.4,10.1,43.4,8.5 M15,29.7c-2.9,0-5-2.3-5-5c0-1.2,1-3.5,2.6-6.4
			c0.3-0.5,1-1.8,1-1.8s0.4-0.7,0.7-1l0.8-1.2l0.8,1.2c0.2,0.3,0.4,0.7,0.7,1c0.3,0.5,0.7,1.1,1.1,1.8c1.6,2.9,2.6,5.2,2.6,6.4
			C20.1,27.4,17.9,29.7,15,29.7 M32.7,14.9c-1.6-2.9-2.6-5.2-2.6-6.4c0-2.9,2.3-5,5-5c2.9,0,5,2.3,5,5c0,1.5-1.6,5-4.3,9.1L35,19.1
			C34.5,17.9,33.7,16.5,32.7,14.9"/>
		<path fill="#EA516D" d="M36.8,8.5c0-0.9-0.8-1.6-1.6-1.6c-0.9,0-1.6,0.8-1.6,1.6c0,0.9,0.8,1.6,1.6,1.6
			C36.1,10.1,36.8,9.3,36.8,8.5"/>
	</g>
	<g>
		<g>
			<path fill="#254152" d="M56.1,8.5h2l5.7,16.6l5.7-16.7H71l5.7,16.7l5.7-16.6h2l-6.9,19.1h-1.6l-5.6-16.2l-5.7,16.2H63L56.1,8.5z"
				/>
			<path fill="#254152" d="M89.9,8.5h1.8v18.9h-1.8V8.5z"/>
			<path fill="#254152" d="M98.9,8.5h1.8v3.4c1.2-2,2.9-3.8,6.3-3.8c3.3,0,5.3,1.9,6.4,4.1c1.2-2.1,3.3-4.1,6.8-4.1
				c4.5,0,7.3,3.2,7.3,7.9v11.5h-1.8V16.1c0-4.1-2.1-6.5-5.6-6.5c-3.2,0-6,2.5-6,6.7v11h-1.8V16c0-3.9-2.2-6.4-5.5-6.4
				c-3.4,0-6.1,3-6.1,6.8v10.9h-1.8V8.5z"/>
			<path fill="#254152" d="M132.9,18L132.9,18c0-5.6,3.9-10,9-10c5.3,0,8.7,4.3,8.7,9.9c0,0.3,0,0.4,0,0.7h-15.7
				c0.3,4.7,3.7,7.5,7.4,7.5c2.9,0,4.9-1.3,6.5-3l1.3,1.1c-1.9,2.1-4.2,3.6-7.8,3.6C137.3,27.9,132.9,23.9,132.9,18z M148.7,17
				c-0.3-3.8-2.5-7.4-6.8-7.4c-3.8,0-6.6,3.2-7,7.4H148.7z"/>
			<path fill="#254152" d="M156.9,22.5V10.1h-2.7V8.5h2.7V2.4h1.8v6.1h6.6v1.7h-6.6v12.2c0,2.7,1.6,3.7,3.8,3.7
				c0.9,0,1.7-0.2,2.8-0.7v1.7c-1,0.4-1.9,0.7-3.1,0.7C159.3,27.7,156.9,26.1,156.9,22.5z"/>
		</g>
		<path fill="#254152" d="M92.5,2.3c0-0.9-0.8-1.6-1.6-1.6c-0.9,0-1.6,0.8-1.6,1.6c0,0.9,0.8,1.6,1.6,1.6
			C91.8,3.9,92.5,3.2,92.5,2.3"/>
	</g>
</g>
</svg>
