<?xml version="1.0" encoding="utf-8"?>
<!-- Generator: Adobe Illustrator 18.1.0, SVG Export Plug-In . SVG Version: 6.00 Build 0)  -->
<svg version="1.1" id="Capa_1" xmlns="http://www.w3.org/2000/svg" xmlns:xlink="http://www.w3.org/1999/xlink" x="0px" y="0px"
	 viewBox="0 -51.9 184 161.9" enable-background="new 0 -51.9 184 161.9" xml:space="preserve">
<g>
	<rect x="64.6" y="-1.9" fill="#EA5C5E" width="47.7" height="73.5"/>
	<path fill="#CE5258" d="M110.3,41.4c0,11.9-9.8,21.6-21.8,21.6c-12.1,0-21.8-9.7-21.8-21.6c0-11.9,9.8-21.6,21.8-21.6
		C100.5,19.9,110.3,29.5,110.3,41.4"/>
	<path fill="#FFFFFF" d="M83.1,36.1C81.9,36.9,81,39,81,40.9c0,2.4,0.7,4.5,2.7,4.5c1.9,0,2.2-2.3,2.5-4.7c0.5-4.2,1.3-8.6,6.3-8.6
		c3.9,0,6,3.2,6.3,6.8h2.9v3.6h-2.7c-0.3,3.2-1.7,6.2-4.9,7.5l-1.4-3.4c1.8-0.8,3-3.3,3-5.7c0-2.6-0.9-4.9-3.1-4.9
		c-1.9,0-2.6,2.4-2.9,5c-0.5,4.1-1.2,8.1-5.9,8.1c-3.7,0-5.4-3.3-5.8-6.6h-2.5V39h2.5c0.4-2.4,1.3-4.7,3.9-5.9L83.1,36.1"/>
	<path fill="#FFFFFF" d="M92.3,8.6c0,2.2-1.8,3.9-3.9,3.9c-2.2,0-3.9-1.8-3.9-3.9c0-2.2,1.8-3.9,3.9-3.9C90.6,4.7,92.3,6.5,92.3,8.6
		"/>
	<path fill="#CE5258" d="M79.5-1.9H64.6V13C72.8,13,79.5,6.3,79.5-1.9"/>
	<path fill="#CE5258" d="M97.3-1.9c0,8.3,6.7,14.9,14.9,14.9V-1.9H97.3"/>
	<path fill="#A49E90" d="M86.1,95.3c-2.7,0-4.9-2.2-4.9-4.9V58.4c0-2.7,2.2-4.9,4.9-4.9h52.4c2.7,0,4.9,2.2,4.9,4.9v32.1
		c0,2.7-2.2,4.9-4.9,4.9H86.1"/>
	<path fill="#C2BEB9" d="M138.5,53.5h-26.2v41.9h26.2c2.7,0,4.9-2.2,4.9-4.9V58.4C143.4,55.6,141.2,53.5,138.5,53.5"/>
	<rect x="81.2" y="74.4" fill="#696456" width="62.2" height="12.4"/>
	<path fill="#F7F7F5" d="M135.3,65.4h-15.8c-1,0-1.7-0.8-1.7-1.7c0-1,0.8-1.7,1.7-1.7h15.8c1,0,1.7,0.8,1.7,1.7
		C137,64.6,136.2,65.4,135.3,65.4"/>
	<path fill="#6DC8F2" d="M92.2,82.8c0,13.7-11.1,24.9-24.9,24.9c-13.7,0-24.9-11.1-24.9-24.9c0-13.7,11.1-24.9,24.9-24.9
		C81,57.9,92.2,69.1,92.2,82.8"/>
	<path fill="#38B0CB" d="M67.3,109.4c-14.7,0-26.6-12-26.6-26.6c0-14.7,11.9-26.6,26.6-26.6c14.7,0,26.6,12,26.6,26.6
		C93.9,97.5,82,109.4,67.3,109.4 M67.3,59.7c-12.8,0-23.2,10.4-23.2,23.2c0,12.8,10.4,23.2,23.2,23.2c12.8,0,23.2-10.4,23.2-23.2
		C90.4,70,80,59.7,67.3,59.7z"/>
	<path fill="#38B0CB" d="M67.5,107.6c-0.3,0-0.6,0-1,0l0.1-3.5c1.1,0,2.3,0,3.4-0.1l0.4,3.5C69.5,107.5,68.5,107.6,67.5,107.6
		 M58.9,106c-1.2-0.5-2.4-1-3.6-1.7l1.7-3c1,0.6,2,1.1,3.1,1.4L58.9,106z M78.1,105.2l-1.5-3.1c1-0.5,2-1.1,2.9-1.7l2,2.9
		C80.4,104,79.2,104.6,78.1,105.2z M49.2,99.3c-0.9-1-1.7-2-2.4-3.1l2.9-1.9c0.6,0.9,1.3,1.9,2,2.7L49.2,99.3z M87.1,97.8l-2.8-2.1
		c0.7-0.9,1.3-1.9,1.8-2.9l3.1,1.6C88.6,95.6,87.9,96.7,87.1,97.8z M43.7,89c-0.3-1.3-0.5-2.6-0.6-3.9l3.5-0.3
		c0.1,1.1,0.3,2.2,0.5,3.3L43.7,89z M91.8,87l-3.5-0.6c0.2-1.1,0.3-2.2,0.3-3.4l3.5-0.1v0.1C92.2,84.4,92,85.7,91.8,87z M47.1,78.1
		l-3.4-0.8c0.3-1.3,0.7-2.5,1.2-3.7l3.2,1.4C47.7,75.9,47.4,77,47.1,78.1z M87.5,76.3c-0.4-1.1-0.8-2.1-1.3-3.1l3.1-1.6
		c0.6,1.2,1.1,2.4,1.6,3.6L87.5,76.3z M51.8,69.2l-2.6-2.3c0.9-1,1.8-1.9,2.8-2.7l2.2,2.7C53.3,67.5,52.5,68.3,51.8,69.2z M82,67.9
		c-0.8-0.8-1.7-1.5-2.6-2.1l2-2.9c1.1,0.7,2.1,1.6,3.1,2.5L82,67.9z M60,63.4l-1.2-3.3c1.2-0.5,2.5-0.8,3.8-1.1l0.7,3.4
		C62.2,62.7,61.1,63,60,63.4z M73.3,62.8c-1.1-0.3-2.2-0.5-3.3-0.7l0.4-3.5c1.3,0.2,2.6,0.4,3.9,0.8L73.3,62.8z"/>
	<path fill="#38B0CB" d="M67.4,102.3c-10.7,0-19.5-8.7-19.5-19.4s8.7-19.4,19.5-19.4s19.5,8.7,19.5,19.4S78.2,102.3,67.4,102.3
		 M67.4,67c-8.8,0-16,7.1-16,15.9s7.2,15.9,16,15.9c8.8,0,16-7.1,16-15.9S76.2,67,67.4,67z"/>
	<path fill="#38B0CB" d="M71.8,78.3c-0.6-1.1-2.5-1.9-4.2-1.9c-2.1,0-3.9,0.6-3.9,2.3c0,1.6,2,1.9,4,2.2c3.6,0.4,7.5,1.1,7.5,5.5
		c0,3.3-2.8,5.2-5.9,5.5v2.5h-3.1v-2.4c-2.8-0.2-5.4-1.5-6.5-4.2l2.9-1.2c0.7,1.6,2.9,2.6,4.9,2.6c2.2,0,4.3-0.8,4.3-2.7
		c0-1.6-2.1-2.2-4.4-2.5c-3.5-0.4-7-1-7-5.1c0-3.2,2.9-4.7,5.7-5.1v-2.2h3.1v2.2c2.1,0.3,4,1.1,5.2,3.4L71.8,78.3"/>
	<path fill="#D9D6D2" d="M119.5,49.1c-1,0-1.9-0.8-1.9-1.9V16.1c0-1,0.8-1.9,1.9-1.9c1,0,1.9,0.8,1.9,1.9v31.1
		C121.4,48.3,120.6,49.1,119.5,49.1"/>
	<path fill="#D9D6D2" d="M119.5,11.7c-1,0-1.9-0.8-1.9-1.9V7.4c0-1,0.8-1.9,1.9-1.9c1,0,1.9,0.8,1.9,1.9v2.5
		C121.4,10.9,120.6,11.7,119.5,11.7"/>
</g>
</svg>
