<?xml version="1.0" encoding="UTF-8"?>
<svg width="173px" height="173px" viewBox="0 0 173 173" version="1.1" xmlns="http://www.w3.org/2000/svg" xmlns:xlink="http://www.w3.org/1999/xlink">
    <!-- Generator: Sketch 47.1 (45422) - http://www.bohemiancoding.com/sketch -->
    <title>avatar</title>
    <desc>Created with Sketch.</desc>
    <defs></defs>
    <g id="Front-End-User" stroke="none" stroke-width="1" fill="none" fill-rule="evenodd" stroke-linejoin="round">
        <g id="Mi-Perfil" transform="translate(-139.000000, -206.000000)" stroke="#666666">
            <g id="datos" transform="translate(140.000000, 190.000000)">
                <g id="avatar" transform="translate(0.000000, 17.000000)">
                    <g id="Group-265">
                        <path d="M70.6304348,107.718645 C70.6304348,107.718645 59.4782609,104.004209 59.4782609,85.4320285 C53.3371304,85.4320285 53.3371304,70.5742844 59.4782609,70.5742844 C59.4782609,68.0856123 48.326087,40.8587963 66.9130435,44.5732323 C70.6304348,29.7154882 111.521739,29.7154882 115.23913,44.5732323 C117.819,54.8845067 111.521739,68.7467819 111.521739,70.5742844 C117.66287,70.5742844 117.66287,85.4320285 111.521739,85.4320285 C111.521739,104.004209 100.369565,107.718645 100.369565,107.718645 L100.369565,126.290825 C118.785522,133.192247 137.023043,138.897621 146.36113,145.42017 C161.587565,129.997832 171,108.810689 171,85.4320285 C171,38.2438333 132.725739,0 85.5,0 C38.2742609,0 0,38.2438333 0,85.4320285 C0,108.855262 9.44217391,130.072121 24.7206522,145.509317 C34.608913,138.674754 54.102913,132.538506 70.6304348,126.290825 L70.6304348,107.718645 L70.6304348,107.718645 Z" id="Stroke-1068"></path>
                        <g id="Group" transform="translate(76.000000, 139.000000)">
                            <path d="M20,10 C20,15.524 15.524,20 10,20 C4.476,20 0,15.524 0,10 C0,4.476 4.476,0 10,0 C15.524,0 20,4.476 20,10 L20,10 Z" id="Stroke-980"></path>
                            <path d="M10,5 L10,15" id="Stroke-981" stroke-linecap="round"></path>
                            <path d="M15,10 L5,10" id="Stroke-982" stroke-linecap="round"></path>
                        </g>
                        <path d="M24.4285714,145.598627 C39.9950664,161.280049 61.5865788,171 85.4626703,171 C109.376092,171 130.997468,161.250279 146.571429,145.509317" id="Stroke-1069"></path>
                    </g>
                </g>
            </g>
        </g>
    </g>
</svg>