<?xml version="1.0" encoding="UTF-8"?>
<svg width="300px" height="70px" viewBox="0 0 300 70" version="1.1" xmlns="http://www.w3.org/2000/svg" xmlns:xlink="http://www.w3.org/1999/xlink">
    <!-- Generator: Sketch 45.1 (43504) - http://www.bohemiancoding.com/sketch -->
    <title>wimet-logo</title>
    <desc>Created with Sketch.</desc>
    <defs>
        <polygon id="path-1" points="0 34.0239347 0 0.16011384 89.7021775 0.16011384 89.7021775 67.8877556 0 67.8877556"></polygon>
    </defs>
    <g id="Page-1" stroke="none" stroke-width="1" fill="none" fill-rule="evenodd">
        <g id="wimet-logo">
            <g>
                <g id="wordmark" transform="translate(0.000000, 0.252125)">
                    <g id="Group-3" transform="translate(0.000000, 0.494948)">
                        <mask id="mask-2" fill="white">
                            <use xlink:href="#path-1"></use>
                        </mask>
                        <g id="Clip-2"></g>
                        <path d="M67.5027139,30.7375021 C64.1057387,24.8491555 62.0665288,20.0918531 62.0665288,17.6004818 C62.0665288,11.7121352 66.8238312,7.18027311 72.4854566,7.18027311 C78.375084,7.18027311 82.9069462,11.9375755 82.9069462,17.6004818 C82.9069462,20.7732976 79.50869,28.0206905 74.0725049,36.4029702 L72.2600163,39.346503 C71.1276912,36.8551317 69.5419237,33.910318 67.5027139,30.7375021 M31.0326239,61.3205264 C25.1442774,61.3205264 20.6136962,56.563224 20.6136962,50.8990368 C20.6136962,48.4076655 22.6516251,43.650363 26.0498813,37.7607356 C26.7300448,36.6271296 28.0890911,34.1383201 28.0890911,34.1383201 C28.0890911,34.1383201 28.994695,32.776712 29.4468565,32.1003911 L31.0326239,29.6064579 L32.6183914,32.1003911 C33.0718338,32.776712 33.5252762,33.4581565 33.9787186,34.1383201 C34.6576013,35.2706451 35.3364839,36.4029702 36.2433687,37.7607356 C39.640344,43.650363 41.6795538,48.4076655 41.6795538,50.8990368 C41.4541135,56.563224 36.9235323,61.3205264 31.0326239,61.3205264 M89.7021775,17.3724797 C89.7021775,7.86171762 82.0000614,0.159601475 72.4854566,0.159601475 C62.9721327,0.159601475 55.2712974,7.86171762 55.2712974,17.3724797 C55.2712974,20.5478574 57.0825052,26.8896463 64.1057387,37.9874568 C67.2772736,43.650363 69.0884813,48.1822252 69.0884813,50.6735965 C69.0884813,56.563224 64.3324598,61.0925243 58.6682727,61.0925243 C52.7786452,61.0925243 48.248064,56.3352219 48.248064,50.6735965 C48.248064,48.1822252 50.0618336,43.650363 53.2320876,37.9874568 C54.3656936,36.1800917 55.4980186,34.1383201 56.4036225,32.5512717 C54.817855,29.8344601 53.68553,27.1125248 53.0053664,24.8491555 C52.0997625,26.6616442 51.1941586,28.4754138 50.0618336,30.5120618 C49.38167,31.6443869 47.1157389,35.4960854 47.1157389,35.4960854 C46.6648583,36.176249 47.1157389,35.4960854 46.6635774,36.176249 L45.076529,38.6676204 L43.4920425,36.176249 C43.0386001,35.4960854 42.5851577,34.8172027 42.1317153,34.1383201 C41.4541135,33.0034332 40.7739499,31.872389 39.8683461,30.5120618 C36.4700899,24.6237153 34.4308801,19.8664129 34.4308801,17.3724797 C34.4308801,11.4841331 39.1881825,6.95483283 44.8510888,6.95483283 C48.0226237,6.95483283 50.7407162,8.3138791 52.5532049,10.3518081 C53.2320876,8.08843881 54.3656936,6.04922895 55.9501801,4.23545938 C53.0053664,1.74408803 49.1536679,0.159601475 44.8510888,0.159601475 C39.1881825,0.159601475 34.2054398,2.87897493 31.0326239,7.18027311 C27.8623699,2.87897493 22.8783463,0.159601475 17.21544,0.159601475 C7.70083523,0.385041762 0,8.08843881 0,17.3724797 C0,20.7732976 1.81120775,27.3430887 9.96676629,39.7986645 L12.0046952,42.9714804 C12.6848588,40.7055493 13.8184648,38.4421801 15.1775111,35.7228066 C9.96676629,27.568529 6.56979107,20.5478574 6.56979107,17.3724797 C6.56979107,11.4841331 11.3270935,6.95483283 16.9887188,6.95483283 C22.8783463,6.95483283 27.4089275,11.7121352 27.4089275,17.3724797 C27.4089275,19.8664129 25.3697177,24.6237153 21.9727424,30.5120618 C14.9507899,41.6124341 13.5917436,47.5007807 13.5917436,50.6735965 C13.5917436,60.1856395 21.2938598,67.8877556 30.8071837,67.8877556 C36.4700899,67.8877556 41.4541135,65.1696631 44.6256485,60.867084 C47.7959025,65.1696631 52.7786452,67.8877556 58.4428324,67.8877556 C67.9561563,67.8877556 75.6582724,60.1856395 75.6582724,50.6735965 C75.6582724,49.7679926 75.4302703,48.4076655 74.9781088,46.5951768 L79.50869,39.7986645 C87.8909698,27.3430887 89.7021775,20.7732976 89.7021775,17.3724797" id="Fill-1" fill="#FC5289" mask="url(#mask-2)"></path>
                    </g>
                    <path d="M75.8843531,17.8678116 C75.8843531,16.0578848 74.2985857,14.4708364 72.486097,14.4708364 C70.6736084,14.4708364 69.0891218,16.0578848 69.0891218,17.8678116 C69.0891218,19.6815812 70.6736084,21.2686296 72.486097,21.2686296 C74.5253069,21.2686296 75.8843531,19.6815812 75.8843531,17.8678116" id="Fill-4" fill="#FC5289"></path>
                </g>
                <path d="M112.718124,19.8290874 C112.718124,19.0761236 113.132248,18.4361139 113.960508,17.9090392 C114.788768,17.3819645 115.654664,17.1184312 116.55822,17.1184312 C117.61237,17.1184312 118.290027,17.5200058 118.591213,18.3231673 L127.70203,43.622626 L134.779854,20.8079355 C135.131238,19.8039838 135.909288,19.3020154 137.114031,19.3020154 C138.36897,19.3020154 139.17212,19.8039838 139.523503,20.8079355 L146.450736,43.848514 L155.636849,18.3231673 C155.887837,17.5200058 156.540395,17.1184312 157.594545,17.1184312 C158.498101,17.1184312 159.376546,17.3819645 160.229905,17.9090392 C161.083264,18.4361139 161.509937,19.0761236 161.509937,19.8290874 C161.509937,20.2306682 161.409544,20.6322429 161.208753,21.0338236 L149.462576,52.2816669 C149.111193,53.1852235 148.282945,53.636995 146.977808,53.636995 C145.622473,53.636995 144.769127,53.1852235 144.417743,52.2816669 L137.114031,30.1446405 L129.96091,52.0557789 C129.609527,53.1099283 128.705984,53.636995 127.250254,53.636995 C125.945116,53.636995 125.09177,53.1099283 124.690189,52.0557789 L113.019308,21.0338236 C112.818518,20.4314525 112.718124,20.0298778 112.718124,19.8290874 Z M167.608914,3.86633374 C167.608914,2.91257954 167.98539,2.08433173 168.738354,1.38156548 C169.491318,0.678799221 170.419959,0.327421364 171.524306,0.327421364 C172.578456,0.327421364 173.481999,0.678799221 174.234963,1.38156548 C174.987926,2.08433173 175.364403,2.91257954 175.364403,3.86633374 C175.364403,4.82008795 174.987926,5.66088496 174.234963,6.38875001 C173.481999,7.11661506 172.578456,7.48054213 171.524306,7.48054213 C170.470157,7.48054213 169.554065,7.11661506 168.776002,6.38875001 C167.997939,5.66088496 167.608914,4.82008795 167.608914,3.86633374 Z M168.43717,50.7004507 L168.43717,19.4526074 C168.43717,18.8000387 168.738351,18.272972 169.340722,17.8713912 C169.943093,17.4698105 170.670947,17.2690232 171.524306,17.2690232 C172.427863,17.2690232 173.180815,17.4698105 173.783187,17.8713912 C174.385558,18.272972 174.686739,18.8000387 174.686739,19.4526074 L174.686739,50.7004507 C174.686739,51.2526242 174.373008,51.7671418 173.745539,52.2440189 C173.118069,52.720896 172.377665,52.959331 171.524306,52.959331 C170.670947,52.959331 169.943093,52.7334452 169.340722,52.2816669 C168.738351,51.8298886 168.43717,51.3028218 168.43717,50.7004507 Z M185.077588,50.7004507 L185.077588,19.4526074 C185.077588,18.8000387 185.36622,18.272972 185.943492,17.8713912 C186.520764,17.4698105 187.261167,17.2690232 188.164724,17.2690232 C188.967886,17.2690232 189.645543,17.4698105 190.197716,17.8713912 C190.74989,18.272972 191.025972,18.8000387 191.025972,19.4526074 L191.025972,22.5397437 C191.929529,20.8832233 193.247196,19.5153595 194.979013,18.4361113 C196.71083,17.3568631 198.731252,16.8172471 201.040341,16.8172471 C203.349431,16.8172471 205.42005,17.5074536 207.252262,18.8878873 C209.084474,20.2683211 210.452338,22.0879564 211.355895,24.3468479 C212.610834,21.887166 214.26733,20.0173339 216.325431,18.7372953 C218.383532,17.4572568 220.541996,16.8172471 222.800888,16.8172471 C226.314719,16.8172471 229.339078,18.1223649 231.874057,20.7326395 C234.409035,23.3429142 235.676505,26.8566928 235.676505,31.2740807 L235.676505,50.7004507 C235.676505,51.2526242 235.362775,51.7671418 234.735305,52.2440189 C234.107835,52.720896 233.367432,52.959331 232.514073,52.959331 C231.710911,52.959331 230.995606,52.720896 230.368137,52.2440189 C229.740667,51.7671418 229.426936,51.2526242 229.426936,50.7004507 L229.426936,31.2740807 C229.426936,28.5634108 228.636336,26.4174961 227.055112,24.836272 C225.473888,23.2550479 223.629154,22.4644477 221.520856,22.4644477 C219.412557,22.4644477 217.542725,23.2675971 215.911303,24.87392 C214.279881,26.4802429 213.464183,28.5383132 213.464183,31.0481926 L213.464183,50.7757467 C213.464183,51.478513 213.150453,52.018129 212.522983,52.3946109 C211.895513,52.7710928 211.155109,52.959331 210.30175,52.959331 C209.498589,52.959331 208.783284,52.7710928 208.155814,52.3946109 C207.528344,52.018129 207.214614,51.478513 207.214614,50.7757467 L207.214614,31.1234886 C207.214614,28.6136092 206.449112,26.5429897 204.918086,24.911568 C203.387059,23.2801463 201.542326,22.4644477 199.383829,22.4644477 C197.225333,22.4644477 195.342952,23.2675971 193.736629,24.87392 C192.130306,26.4802429 191.327156,28.6136084 191.327156,31.2740807 L191.327156,50.7004507 C191.327156,51.2526242 191.013426,51.7671418 190.385956,52.2440189 C189.758486,52.720896 189.018083,52.959331 188.164724,52.959331 C187.311365,52.959331 186.583511,52.7334452 185.98114,52.2816669 C185.378769,51.8298886 185.077588,51.3028218 185.077588,50.7004507 Z M244.410842,38.9542735 L244.410842,31.0481926 C244.410842,27.1829782 245.8791,23.8448886 248.815659,21.0338236 C251.752218,18.2227586 255.278545,16.8172471 259.394748,16.8172471 C263.31016,16.8172471 266.698446,18.1349141 269.559709,20.7702875 C272.420971,23.405661 273.851581,26.706103 273.851581,30.6717126 C273.851581,32.1274427 273.675892,33.2945192 273.324509,34.172977 C272.973126,35.0514348 272.43351,35.6788953 271.705645,36.0553772 C270.97778,36.4318591 270.300123,36.6702941 269.672653,36.7706893 C269.045183,36.8710844 268.204386,36.9212813 267.150236,36.9212813 L250.660411,36.9212813 L250.660411,39.1801615 C250.660411,41.9410289 251.651798,44.1496898 253.634603,45.8062102 C255.617408,47.4627307 258.189996,48.2909785 261.352444,48.2909785 C263.008964,48.2909785 264.452123,48.0399943 265.681964,47.5380184 C266.911805,47.0360425 267.903193,46.5466233 268.656157,46.0697462 C269.40912,45.5928691 270.011483,45.3544342 270.463261,45.3544342 C271.166027,45.3544342 271.768389,45.6681644 272.270365,46.2956343 C272.772341,46.9231041 273.023325,47.5631138 273.023325,48.2156825 C273.023325,49.370227 271.881347,50.5498527 269.597357,51.7545948 C267.313366,52.959337 264.489794,53.561699 261.126556,53.561699 C256.207192,53.561699 252.191445,52.2189337 249.079195,49.5333626 C245.966944,46.8477916 244.410842,43.3214638 244.410842,38.9542735 Z M250.660411,32.7047048 L264.590172,32.7047048 C265.89531,32.7047048 266.773754,32.5415651 267.225533,32.2152808 C267.677311,31.8889964 267.903197,31.2489868 267.903197,30.2952326 C267.903197,28.036341 267.074949,26.053566 265.418428,24.3468479 C263.761908,22.6401299 261.728936,21.7867837 259.319452,21.7867837 C256.960165,21.7867837 254.927193,22.5773838 253.220475,24.1586079 C251.513757,25.739832 250.660411,27.6849594 250.660411,29.9940485 L250.660411,32.7047048 Z M282.134142,41.5896338 L282.134142,2.81218963 C282.134142,2.20981855 282.460422,1.69530098 283.11299,1.26862146 C283.765559,0.841941952 284.468315,0.628605396 285.221278,0.628605396 C286.02444,0.628605396 286.752294,0.841941952 287.404863,1.26862146 C288.057431,1.69530098 288.383711,2.20981855 288.383711,2.81218963 L288.383711,17.2690232 L297.871008,17.2690232 C298.423181,17.2690232 298.874953,17.5200074 299.226336,18.0219833 C299.577719,18.5239591 299.753408,19.1012228 299.753408,19.7537914 C299.753408,20.4063601 299.577719,20.9710745 299.226336,21.4479516 C298.874953,21.9248287 298.423181,22.1632637 297.871008,22.1632637 L288.383711,22.1632637 L288.383711,41.5896338 C288.383711,43.7481301 288.848031,45.2665844 289.776687,46.1450423 C290.705342,47.0235001 292.32419,47.4627224 294.633279,47.4627224 L296.967456,47.4627224 C297.820815,47.4627224 298.485923,47.7262558 298.9628,48.2533305 C299.439677,48.7804052 299.678112,49.4204148 299.678112,50.1733787 C299.678112,50.9263425 299.427128,51.5789014 298.925152,52.1310749 C298.423176,52.6832484 297.770617,52.959331 296.967456,52.959331 L294.633279,52.959331 C286.30048,52.959331 282.134142,49.1694698 282.134142,41.5896338 Z" id="wimet" fill="#253852"></path>
            </g>
        </g>
    </g>
</svg>