<?xml version="1.0" encoding="utf-8"?>
<!-- Generator: Adobe Illustrator 18.1.0, SVG Export Plug-In . SVG Version: 6.00 Build 0)  -->
<svg version="1.1" id="Capa_1" xmlns="http://www.w3.org/2000/svg" xmlns:xlink="http://www.w3.org/1999/xlink" x="0px" y="0px"
	 viewBox="-13 14 18 18" enable-background="new -13 14 18 18" xml:space="preserve">
<path fill="none" d="M-13,14H5v18h-18V14z"/>
<path fill="#545454" d="M1.2,16.2h-3.1C-2.2,15.4-3,14.8-4,14.8s-1.8,0.6-2.1,1.5h-3.1c-0.8,0-1.5,0.7-1.5,1.5v10.5
	c0,0.8,0.7,1.5,1.5,1.5H1.2c0.8,0,1.5-0.7,1.5-1.5V17.8C2.8,16.9,2.1,16.2,1.2,16.2z M-4,16.2c0.4,0,0.8,0.3,0.8,0.8
	s-0.3,0.8-0.8,0.8s-0.8-0.3-0.8-0.8S-4.4,16.2-4,16.2z M-5.5,26.8l-3-3l1.1-1.1l1.9,1.9l4.9-4.9l1.1,1.1L-5.5,26.8z"/>
</svg>
